<svg version="1.1" id="Layer_1" xmlns="http://www.w3.org/2000/svg" xmlns:xlink="http://www.w3.org/1999/xlink" x="0px" y="0px"
	 width="100%" viewBox="0 0 2565 1000" enable-background="new 0 0 2565 1000" xml:space="preserve">
<path fill="#0D1117" opacity="1.000000" stroke="none" 
	d="
M1816.000000,1001.000000 
	C1210.666626,1001.000000 605.833313,1001.000000 1.000000,1001.000000 
	C1.000000,667.666687 1.000000,334.333344 1.000000,1.000000 
	C856.000000,1.000000 1711.000000,1.000000 2566.000000,1.000000 
	C2566.000000,334.333344 2566.000000,667.666687 2566.000000,1001.000000 
	C2316.166748,1001.000000 2066.333252,1001.000000 1816.000000,1001.000000 
M2493.438965,586.163025 
	C2493.438965,586.163025 2493.375244,586.211121 2493.454834,587.117065 
	C2493.454834,594.244141 2493.454834,601.371216 2493.454834,608.680542 
	C2508.819092,608.680542 2523.527100,608.680542 2538.330078,608.680542 
	C2538.330078,517.780457 2538.330078,427.203827 2538.330078,336.427795 
	C2523.445801,336.427795 2508.861084,336.427795 2493.565430,336.427795 
	C2493.565430,370.187714 2493.565430,403.712097 2493.565430,438.356201 
	C2491.477783,436.066925 2490.134766,434.845032 2489.089844,433.406372 
	C2483.240234,425.352417 2475.687500,419.604431 2466.501953,415.743713 
	C2457.185547,411.827911 2447.759521,410.907806 2437.663086,411.802399 
	C2420.500244,413.323059 2406.670410,420.482452 2396.465332,434.106018 
	C2384.237305,450.429810 2380.618164,469.605652 2380.084473,489.438660 
	C2379.712646,503.255829 2380.254639,517.095093 2380.139404,530.922424 
	C2380.028809,544.210938 2381.918701,557.139465 2386.041504,569.767273 
	C2389.983887,581.843384 2396.795410,592.139160 2406.726807,599.858032 
	C2419.887695,610.087280 2435.354736,613.201111 2451.755615,611.838867 
	C2462.979980,610.906494 2473.308594,607.397766 2481.562256,599.417114 
	C2485.814941,595.305054 2489.531982,590.639343 2493.438965,586.163025 
M155.755081,271.263489 
	C150.864746,275.709747 145.945755,280.124939 141.089600,284.608215 
	C127.949188,296.739532 115.953400,309.998566 105.671432,324.555603 
	C91.004066,345.321381 78.108490,367.222961 69.467918,391.293884 
	C65.572517,402.145691 62.041107,413.164093 59.068897,424.300262 
	C56.594769,433.570221 54.916672,443.079773 53.364738,452.561554 
	C51.629074,463.165833 49.571693,473.830658 49.226803,484.519836 
	C48.824501,496.988373 49.930096,509.524567 50.751740,522.007080 
	C51.311104,530.505066 52.205917,539.006592 53.478779,547.426697 
	C56.256741,565.803162 60.730133,583.688843 67.140892,601.254639 
	C74.647484,621.823120 83.688622,641.570984 95.525932,659.853455 
	C104.394684,673.551086 113.957481,687.030029 124.865417,699.113037 
	C136.221954,711.692993 149.431503,722.627686 162.073700,734.012024 
	C175.024002,745.673706 189.719040,754.932312 205.094742,762.963867 
	C216.375961,768.856567 227.949493,774.335144 239.797668,778.961304 
	C255.689713,785.166565 271.865204,790.706177 288.912720,793.118103 
	C301.156433,794.850464 313.326080,797.164185 325.601776,798.589233 
	C332.015350,799.333862 338.591705,798.886597 345.085449,798.685181 
	C357.633820,798.296082 370.262207,798.435974 382.695557,796.977173 
	C394.564514,795.584534 406.442749,793.185730 417.930084,789.883484 
	C434.475098,785.127380 451.032104,780.029602 466.916809,773.463623 
	C484.115143,766.354675 500.647034,757.543030 515.405640,745.918579 
	C526.845886,736.907837 538.792419,728.402222 549.334229,718.425598 
	C560.945740,707.436646 572.011047,695.647766 581.823059,683.046204 
	C590.726135,671.612122 597.587097,658.593445 605.417236,646.317322 
	C614.548157,632.001831 620.976685,616.396484 626.081238,600.359680 
	C630.507141,586.454895 633.962158,572.185913 636.925354,557.887085 
	C639.565674,545.146423 641.980957,532.196411 642.631592,519.245178 
	C643.557251,500.817078 643.648132,482.273438 639.946106,463.969421 
	C637.820984,453.462189 636.210083,442.852051 634.242432,432.311646 
	C630.627502,412.947479 623.735474,394.619507 615.198303,377.018402 
	C608.420410,363.044250 600.613586,349.531799 592.625122,336.196930 
	C588.185547,328.786163 582.692688,321.951843 577.219849,315.227783 
	C569.344727,305.552307 561.380981,295.906677 552.825928,286.842072 
	C547.334839,281.023926 540.828613,276.129425 534.566406,271.082794 
	C527.555786,265.433136 520.693176,259.455658 513.074951,254.736572 
	C500.335632,246.845291 487.187836,239.575043 473.940399,232.555908 
	C465.307678,227.981888 456.466644,223.498383 447.236694,220.420410 
	C430.645050,214.887482 413.947571,209.636810 396.487671,207.039444 
	C382.319336,204.931717 368.231201,202.812271 353.859222,203.055923 
	C343.528870,203.231079 333.187531,202.884903 322.861969,203.167938 
	C316.810394,203.333832 310.700592,203.852386 304.757812,204.964767 
	C294.249817,206.931702 283.723938,209.022491 273.434875,211.885574 
	C259.956604,215.636108 246.332642,219.297241 233.448990,224.633072 
	C219.542664,230.392441 205.985138,237.318161 193.074966,245.067123 
	C180.271851,252.751831 168.464386,262.095337 155.755081,271.263489 
M1759.015991,559.419495 
	C1763.597534,542.805359 1764.059326,526.084473 1758.406616,509.758087 
	C1750.420410,486.691803 1733.214966,474.204987 1709.032104,469.522034 
	C1711.010742,468.865845 1712.376343,468.354218 1713.774658,467.957855 
	C1744.303833,459.303680 1760.249756,437.521698 1758.782593,405.770599 
	C1757.494263,377.888184 1746.308716,356.017975 1719.664917,344.138580 
	C1705.365967,337.763306 1690.150757,336.354553 1674.742188,336.319061 
	C1640.425537,336.240021 1606.108521,336.240417 1571.791748,336.220154 
	C1570.670410,336.219513 1569.549072,336.346466 1568.317139,336.420624 
	C1568.317139,427.402618 1568.317139,518.076233 1568.317139,609.004395 
	C1570.443604,609.004395 1572.256958,609.004395 1574.070435,609.004395 
	C1608.054199,609.004272 1642.038086,609.057983 1676.021606,608.958618 
	C1682.836670,608.938721 1689.718384,608.836182 1696.452515,607.915833 
	C1726.211914,603.848389 1748.772949,590.128174 1759.015991,559.419495 
M1297.032349,599.515808 
	C1297.032349,595.091736 1297.032349,590.667664 1297.032349,585.877808 
	C1301.195557,590.631165 1304.645874,595.289673 1308.803955,599.194641 
	C1327.423218,616.680481 1360.035645,614.075012 1377.685181,603.515137 
	C1397.382812,591.729980 1406.875854,573.074768 1408.605347,551.423218 
	C1410.535767,527.259094 1409.997314,502.855865 1409.643433,478.569672 
	C1409.476196,467.083191 1405.859375,456.049561 1401.175781,445.398560 
	C1384.131470,406.636810 1325.650513,397.979462 1299.869751,435.940613 
	C1299.217041,436.901733 1298.350342,437.717529 1296.810059,439.491974 
	C1296.810059,430.357025 1296.810059,422.441010 1296.810059,414.555298 
	C1281.675659,414.555298 1266.962524,414.555298 1252.347168,414.555298 
	C1252.347168,505.853577 1252.347168,596.767151 1252.347168,687.752441 
	C1267.340332,687.752441 1282.055298,687.752441 1297.032349,687.752441 
	C1297.032349,658.451233 1297.032349,629.480774 1297.032349,599.515808 
M970.206970,362.301544 
	C967.687988,359.877686 965.304504,357.291779 962.629028,355.055054 
	C936.414368,333.139435 906.142700,329.482025 874.150146,336.863739 
	C834.620972,345.984436 807.923035,378.404114 806.233337,420.925781 
	C804.859436,455.502350 805.204712,490.199982 806.244629,524.800110 
	C806.882202,546.015381 814.695312,565.320129 828.718018,581.813477 
	C855.072815,612.811584 904.675903,618.566772 937.261536,605.323547 
	C973.498413,590.596619 990.372681,560.963501 997.976990,524.104919 
	C986.752563,524.104919 975.935547,524.081421 965.118713,524.116577 
	C960.798706,524.130676 955.664490,522.887024 952.415222,524.794922 
	C949.783325,526.340332 949.496643,531.778259 948.036377,535.436401 
	C935.632080,566.510925 897.868713,577.579041 871.345947,557.656555 
	C858.158752,547.751038 852.559204,533.402954 852.140930,517.576477 
	C851.406067,489.775269 851.563110,461.942078 851.856018,434.127625 
	C851.933899,426.735718 853.033508,419.119019 855.112610,412.030396 
	C860.178162,394.758972 871.533142,383.166473 889.377808,379.258179 
	C908.828979,374.997986 926.045654,379.708527 938.608459,395.634064 
	C944.443665,403.031158 948.249329,412.029236 953.221558,420.733215 
	C967.249695,420.733215 982.437134,420.733215 997.749634,420.733215 
	C993.564331,398.865356 985.529602,379.248596 970.206970,362.301544 
M1970.729858,531.312317 
	C1970.151733,512.358887 1971.178955,493.186249 1968.627686,474.502289 
	C1964.571777,444.802032 1947.702637,424.336914 1918.305298,415.474731 
	C1904.880859,411.427765 1891.072632,411.084351 1877.214478,412.090149 
	C1840.805786,414.732697 1815.184204,436.485504 1808.935425,472.420776 
	C1804.298706,499.085876 1804.198486,526.333618 1809.375854,552.951416 
	C1814.956543,581.642273 1832.454346,600.786377 1861.207886,608.400208 
	C1880.098999,613.402527 1899.176880,613.243347 1917.976685,607.916809 
	C1938.072021,602.223206 1953.024536,590.054810 1962.079590,570.975769 
	C1967.898926,558.714539 1970.074585,545.668518 1970.729858,531.312317 
M2136.638184,420.815430 
	C2099.555420,402.712677 2045.869385,411.512329 2021.732910,439.916992 
	C2031.654175,448.217987 2041.574219,456.517914 2051.545654,464.860962 
	C2063.526123,456.116364 2076.823975,451.951599 2091.323730,451.317780 
	C2117.986572,450.152283 2133.457520,467.223572 2129.379395,493.926392 
	C2114.009766,493.926392 2098.555664,493.691162 2083.113281,494.016449 
	C2074.151367,494.205261 2065.067871,494.525848 2056.285400,496.133240 
	C2035.640747,499.911591 2020.253784,510.558594 2014.478760,531.890991 
	C2011.116089,544.312073 2011.266235,556.885132 2013.808472,569.490479 
	C2017.554077,588.061523 2028.091309,601.393860 2046.156982,606.673279 
	C2075.670898,615.298340 2104.520264,615.835266 2129.953369,593.338745 
	C2129.953369,598.554138 2129.953369,603.601501 2129.953369,608.670776 
	C2144.027344,608.670776 2157.588623,608.670776 2171.364014,608.670776 
	C2171.364014,599.515564 2171.386475,590.690247 2171.359863,581.865112 
	C2171.252930,546.544983 2171.830322,511.203888 2170.771240,475.912079 
	C2170.051758,451.929047 2159.237061,432.808044 2136.638184,420.815430 
M1044.709961,383.499817 
	C1044.730225,440.303558 1044.745972,497.107330 1044.781372,553.911072 
	C1044.783813,557.740845 1044.781372,561.581055 1045.043335,565.398438 
	C1046.450562,585.897827 1057.147705,601.108704 1074.319702,606.707581 
	C1088.097168,611.199585 1102.298218,608.617432 1116.307617,609.553589 
	C1116.307617,594.704895 1116.307617,580.648865 1116.307617,566.380798 
	C1112.114624,566.380798 1108.299927,566.414490 1104.486206,566.374146 
	C1094.418823,566.267761 1090.299438,562.386047 1089.586792,552.318909 
	C1089.457642,550.494446 1089.479004,548.657349 1089.480103,546.826050 
	C1089.521729,478.861511 1089.569336,410.896973 1089.615723,342.932434 
	C1089.617188,340.817841 1089.615845,338.703217 1089.615845,336.430969 
	C1074.421875,336.430969 1059.839478,336.430969 1044.709961,336.430969 
	C1044.709961,351.948944 1044.709961,367.224365 1044.709961,383.499817 
M2225.790283,460.499878 
	C2225.790283,509.898529 2225.790283,559.297180 2225.790283,608.719849 
	C2241.683105,608.719849 2256.920166,608.719849 2272.595703,608.719849 
	C2272.595703,606.639526 2272.597900,604.838196 2272.595459,603.036926 
	C2272.547119,567.553101 2272.481689,532.069214 2272.474121,496.585388 
	C2272.473389,492.594788 2272.583740,488.580231 2273.016602,484.617645 
	C2274.940918,467.001953 2286.588623,455.920807 2304.235107,454.760681 
	C2315.416260,454.025574 2325.774902,456.021393 2334.296631,464.387085 
	C2343.487305,451.711609 2352.447998,439.353302 2361.525635,426.833649 
	C2349.852295,415.787750 2336.038330,411.663116 2320.697754,411.644257 
	C2299.787109,411.618530 2285.201660,422.680328 2272.735352,440.277100 
	C2272.735352,430.657593 2272.735352,422.629852 2272.735352,414.420563 
	C2256.797119,414.420563 2241.556641,414.420563 2225.790283,414.420563 
	C2225.790283,429.609955 2225.790283,444.554901 2225.790283,460.499878 
M1154.464355,432.501099 
	C1154.464355,491.242706 1154.464355,549.984314 1154.464355,608.822510 
	C1169.680542,608.822510 1184.296265,608.822510 1199.087891,608.822510 
	C1199.087891,543.922913 1199.087891,479.209106 1199.087891,414.412842 
	C1184.204102,414.412842 1169.612793,414.412842 1154.464478,414.412842 
	C1154.464478,420.259125 1154.464478,425.880646 1154.464355,432.501099 
M1174.500244,336.176453 
	C1167.929443,336.176453 1161.358643,336.176453 1154.730957,336.176453 
	C1154.730957,351.530182 1154.730957,366.119812 1154.730957,380.763428 
	C1169.692749,380.763428 1184.380737,380.763428 1199.116577,380.763428 
	C1199.116577,365.789124 1199.116577,351.190887 1199.116577,336.176453 
	C1191.075562,336.176453 1183.287842,336.176453 1174.500244,336.176453 
z"/>
<path fill="#BB86FC" opacity="1.000000" stroke="none" 
	d="
M155.987671,270.987427 
	C168.464386,262.095337 180.271851,252.751831 193.074966,245.067123 
	C205.985138,237.318161 219.542664,230.392441 233.448990,224.633072 
	C246.332642,219.297241 259.956604,215.636108 273.434875,211.885574 
	C283.723938,209.022491 294.249817,206.931702 304.757812,204.964767 
	C310.700592,203.852386 316.810394,203.333832 322.861969,203.167938 
	C333.187531,202.884903 343.528870,203.231079 353.859222,203.055923 
	C368.231201,202.812271 382.319336,204.931717 396.487671,207.039444 
	C413.947571,209.636810 430.645050,214.887482 447.236694,220.420410 
	C456.466644,223.498383 465.307678,227.981888 473.940399,232.555908 
	C487.187836,239.575043 500.335632,246.845291 513.074951,254.736572 
	C520.693176,259.455658 527.555786,265.433136 534.566406,271.082794 
	C540.828613,276.129425 547.334839,281.023926 552.825928,286.842072 
	C561.380981,295.906677 569.344727,305.552307 577.219849,315.227783 
	C582.692688,321.951843 588.185547,328.786163 592.625122,336.196930 
	C600.613586,349.531799 608.420410,363.044250 615.198303,377.018402 
	C623.735474,394.619507 630.627502,412.947479 634.242432,432.311646 
	C636.210083,442.852051 637.820984,453.462189 639.946106,463.969421 
	C643.648132,482.273438 643.557251,500.817078 642.631592,519.245178 
	C641.980957,532.196411 639.565674,545.146423 636.925354,557.887085 
	C633.962158,572.185913 630.507141,586.454895 626.081238,600.359680 
	C620.976685,616.396484 614.548157,632.001831 605.417236,646.317322 
	C597.587097,658.593445 590.726135,671.612122 581.823059,683.046204 
	C572.011047,695.647766 560.945740,707.436646 549.334229,718.425598 
	C538.792419,728.402222 526.845886,736.907837 515.405640,745.918579 
	C500.647034,757.543030 484.115143,766.354675 466.916809,773.463623 
	C451.032104,780.029602 434.475098,785.127380 417.930084,789.883484 
	C406.442749,793.185730 394.564514,795.584534 382.695557,796.977173 
	C370.262207,798.435974 357.633820,798.296082 345.085449,798.685181 
	C338.591705,798.886597 332.015350,799.333862 325.601776,798.589233 
	C313.326080,797.164185 301.156433,794.850464 288.912720,793.118103 
	C271.865204,790.706177 255.689713,785.166565 239.797668,778.961304 
	C227.949493,774.335144 216.375961,768.856567 205.094742,762.963867 
	C189.719040,754.932312 175.024002,745.673706 162.073700,734.012024 
	C149.431503,722.627686 136.221954,711.692993 124.865417,699.113037 
	C113.957481,687.030029 104.394684,673.551086 95.525932,659.853455 
	C83.688622,641.570984 74.647484,621.823120 67.140892,601.254639 
	C60.730133,583.688843 56.256741,565.803162 53.478779,547.426697 
	C52.205917,539.006592 51.311104,530.505066 50.751740,522.007080 
	C49.930096,509.524567 48.824501,496.988373 49.226803,484.519836 
	C49.571693,473.830658 51.629074,463.165833 53.364738,452.561554 
	C54.916672,443.079773 56.594769,433.570221 59.068897,424.300262 
	C62.041107,413.164093 65.572517,402.145691 69.467918,391.293884 
	C78.108490,367.222961 91.004066,345.321381 105.671432,324.555603 
	C115.953400,309.998566 127.949188,296.739532 141.089600,284.608215 
	C145.945755,280.124939 150.864746,275.709747 155.987671,270.987427 
M328.028534,345.389008 
	C317.988953,349.478638 311.256805,357.481964 305.955536,366.228973 
	C303.456055,370.353119 301.412994,371.987823 296.930084,371.958954 
	C277.764404,371.835419 258.597382,371.870819 239.431015,371.921173 
	C225.143661,371.958710 212.012436,384.729218 211.927948,398.951111 
	C211.751770,428.606171 211.714645,458.262512 211.740829,487.918213 
	C211.777054,528.916992 212.211441,569.918762 211.774521,610.911743 
	C211.690170,618.826965 215.831360,624.122437 219.169662,630.023499 
	C220.469833,632.321777 225.006409,632.593750 226.885590,634.797546 
	C231.931259,640.715088 239.010834,640.826904 245.309250,640.857422 
	C313.140320,641.186218 380.974213,640.907288 448.805878,641.168823 
	C466.270508,641.236145 481.264038,626.199280 481.204010,608.937073 
	C480.966339,540.605286 481.123199,472.272095 481.095490,403.939423 
	C481.087616,384.567291 466.744995,370.311890 447.325256,370.279572 
	C429.492126,370.249908 411.658112,370.181976 393.826447,370.343994 
	C390.049774,370.378326 387.725464,369.469421 386.050232,365.771637 
	C384.501862,362.353729 382.175903,359.131653 379.616241,356.354309 
	C365.324371,340.846771 348.099274,338.005646 328.028534,345.389008 
z"/>
<path fill="#BA85FB" opacity="1.000000" stroke="none" 
	d="
M1758.933105,559.812927 
	C1748.772949,590.128174 1726.211914,603.848389 1696.452515,607.915833 
	C1689.718384,608.836182 1682.836670,608.938721 1676.021606,608.958618 
	C1642.038086,609.057983 1608.054199,609.004272 1574.070435,609.004395 
	C1572.256958,609.004395 1570.443604,609.004395 1568.317139,609.004395 
	C1568.317139,518.076233 1568.317139,427.402618 1568.317139,336.420624 
	C1569.549072,336.346466 1570.670410,336.219513 1571.791748,336.220154 
	C1606.108521,336.240417 1640.425537,336.240021 1674.742188,336.319061 
	C1690.150757,336.354553 1705.365967,337.763306 1719.664917,344.138580 
	C1746.308716,356.017975 1757.494263,377.888184 1758.782593,405.770599 
	C1760.249756,437.521698 1744.303833,459.303680 1713.774658,467.957855 
	C1712.376343,468.354218 1711.010742,468.865845 1709.032104,469.522034 
	C1733.214966,474.204987 1750.420410,486.691803 1758.406616,509.758087 
	C1764.059326,526.084473 1763.597534,542.805359 1758.933105,559.812927 
M1642.500000,490.093475 
	C1632.744995,490.093475 1622.990112,490.093475 1613.249268,490.093475 
	C1613.249268,515.817749 1613.249268,540.880371 1613.249268,565.870483 
	C1636.306519,565.870483 1659.141968,566.945862 1681.830200,565.578918 
	C1706.256836,564.107178 1718.044678,549.389587 1717.052490,525.107361 
	C1716.269287,505.939270 1704.965332,492.885803 1685.874512,491.132660 
	C1671.836304,489.843414 1657.630859,490.373901 1642.500000,490.093475 
M1659.500000,378.877563 
	C1644.075317,378.877563 1628.650635,378.877563 1613.301636,378.877563 
	C1613.301636,402.319366 1613.301636,425.043915 1613.301636,447.898987 
	C1636.280273,447.898987 1658.941528,448.490936 1681.556641,447.721527 
	C1701.533203,447.041901 1712.708984,434.811737 1713.683472,414.741211 
	C1714.613525,395.586761 1704.773682,383.031616 1685.391479,379.990143 
	C1677.236816,378.710480 1668.805542,379.193909 1659.500000,378.877563 
z"/>
<path fill="#BA86FB" opacity="1.000000" stroke="none" 
	d="
M2493.490967,586.223755 
	C2489.531982,590.639343 2485.814941,595.305054 2481.562256,599.417114 
	C2473.308594,607.397766 2462.979980,610.906494 2451.755615,611.838867 
	C2435.354736,613.201111 2419.887695,610.087280 2406.726807,599.858032 
	C2396.795410,592.139160 2389.983887,581.843384 2386.041504,569.767273 
	C2381.918701,557.139465 2380.028809,544.210938 2380.139404,530.922424 
	C2380.254639,517.095093 2379.712646,503.255829 2380.084473,489.438660 
	C2380.618164,469.605652 2384.237305,450.429810 2396.465332,434.106018 
	C2406.670410,420.482452 2420.500244,413.323059 2437.663086,411.802399 
	C2447.759521,410.907806 2457.185547,411.827911 2466.501953,415.743713 
	C2475.687500,419.604431 2483.240234,425.352417 2489.089844,433.406372 
	C2490.134766,434.845032 2491.477783,436.066925 2493.565430,438.356201 
	C2493.565430,403.712097 2493.565430,370.187714 2493.565430,336.427795 
	C2508.861084,336.427795 2523.445801,336.427795 2538.330078,336.427795 
	C2538.330078,427.203827 2538.330078,517.780457 2538.330078,608.680542 
	C2523.527100,608.680542 2508.819092,608.680542 2493.454834,608.680542 
	C2493.454834,601.371216 2493.454834,594.244141 2493.531250,586.557617 
	C2493.607666,585.998169 2493.357422,585.865417 2493.357422,585.865417 
	C2493.357422,585.865417 2493.490967,586.223694 2493.490967,586.223755 
M2469.091797,569.918335 
	C2484.056885,565.813904 2492.385986,557.275085 2493.024414,541.834473 
	C2493.883301,521.071716 2493.359863,500.234528 2492.820801,479.445038 
	C2492.706787,475.051666 2490.571533,470.377563 2488.316650,466.433563 
	C2480.658447,453.037689 2465.116699,450.817200 2450.071289,453.714691 
	C2433.447510,456.916138 2426.053955,472.049194 2425.187256,487.505920 
	C2424.414307,501.287384 2424.930420,515.147461 2425.078613,528.970703 
	C2425.129639,533.728882 2425.324707,538.573975 2426.261963,543.216187 
	C2428.326904,553.438782 2432.841797,562.306763 2442.781494,567.089478 
	C2450.865234,570.979248 2459.403320,572.103333 2469.091797,569.918335 
z"/>
<path fill="#BA85FB" opacity="1.000000" stroke="none" 
	d="
M1297.032349,600.013062 
	C1297.032349,629.480774 1297.032349,658.451233 1297.032349,687.752441 
	C1282.055298,687.752441 1267.340332,687.752441 1252.347168,687.752441 
	C1252.347168,596.767151 1252.347168,505.853577 1252.347168,414.555298 
	C1266.962524,414.555298 1281.675659,414.555298 1296.810059,414.555298 
	C1296.810059,422.441010 1296.810059,430.357025 1296.810059,439.491974 
	C1298.350342,437.717529 1299.217041,436.901733 1299.869751,435.940613 
	C1325.650513,397.979462 1384.131470,406.636810 1401.175781,445.398560 
	C1405.859375,456.049561 1409.476196,467.083191 1409.643433,478.569672 
	C1409.997314,502.855865 1410.535767,527.259094 1408.605347,551.423218 
	C1406.875854,573.074768 1397.382812,591.729980 1377.685181,603.515137 
	C1360.035645,614.075012 1327.423218,616.680481 1308.803955,599.194641 
	C1304.645874,595.289673 1301.195557,590.631165 1297.032349,585.877808 
	C1297.032349,590.667664 1297.032349,595.091736 1297.032349,600.013062 
M1297.602173,480.281006 
	C1297.508789,500.758667 1296.826904,521.256958 1297.543091,541.706238 
	C1297.971191,553.927612 1304.034058,563.831116 1316.240601,568.244202 
	C1334.972168,575.016357 1362.299316,570.139160 1364.947388,538.324463 
	C1366.297241,522.108215 1365.847412,505.694122 1365.345337,489.396118 
	C1365.150757,483.081818 1363.414062,476.475922 1360.900635,470.639984 
	C1354.951416,456.825806 1341.054443,450.655701 1323.668579,453.095245 
	C1309.279175,455.114349 1300.084717,464.458130 1297.602173,480.281006 
z"/>
<path fill="#BA85FA" opacity="1.000000" stroke="none" 
	d="
M970.451233,362.557495 
	C985.529602,379.248596 993.564331,398.865356 997.749634,420.733215 
	C982.437134,420.733215 967.249695,420.733215 953.221558,420.733215 
	C948.249329,412.029236 944.443665,403.031158 938.608459,395.634064 
	C926.045654,379.708527 908.828979,374.997986 889.377808,379.258179 
	C871.533142,383.166473 860.178162,394.758972 855.112610,412.030396 
	C853.033508,419.119019 851.933899,426.735718 851.856018,434.127625 
	C851.563110,461.942078 851.406067,489.775269 852.140930,517.576477 
	C852.559204,533.402954 858.158752,547.751038 871.345947,557.656555 
	C897.868713,577.579041 935.632080,566.510925 948.036377,535.436401 
	C949.496643,531.778259 949.783325,526.340332 952.415222,524.794922 
	C955.664490,522.887024 960.798706,524.130676 965.118713,524.116577 
	C975.935547,524.081421 986.752563,524.104919 997.976990,524.104919 
	C990.372681,560.963501 973.498413,590.596619 937.261536,605.323547 
	C904.675903,618.566772 855.072815,612.811584 828.718018,581.813477 
	C814.695312,565.320129 806.882202,546.015381 806.244629,524.800110 
	C805.204712,490.199982 804.859436,455.502350 806.233337,420.925781 
	C807.923035,378.404114 834.620972,345.984436 874.150146,336.863739 
	C906.142700,329.482025 936.414368,333.139435 962.629028,355.055054 
	C965.304504,357.291779 967.687988,359.877686 970.451233,362.557495 
z"/>
<path fill="#BA85FB" opacity="1.000000" stroke="none" 
	d="
M1970.713379,531.788086 
	C1970.074585,545.668518 1967.898926,558.714539 1962.079590,570.975769 
	C1953.024536,590.054810 1938.072021,602.223206 1917.976685,607.916809 
	C1899.176880,613.243347 1880.098999,613.402527 1861.207886,608.400208 
	C1832.454346,600.786377 1814.956543,581.642273 1809.375854,552.951416 
	C1804.198486,526.333618 1804.298706,499.085876 1808.935425,472.420776 
	C1815.184204,436.485504 1840.805786,414.732697 1877.214478,412.090149 
	C1891.072632,411.084351 1904.880859,411.427765 1918.305298,415.474731 
	C1947.702637,424.336914 1964.571777,444.802032 1968.627686,474.502289 
	C1971.178955,493.186249 1970.151733,512.358887 1970.713379,531.788086 
M1861.283691,558.188965 
	C1873.193359,569.960388 1887.548950,571.184204 1902.529663,566.637451 
	C1916.701538,562.336182 1924.038940,551.223206 1924.918457,537.140686 
	C1925.983154,520.094299 1926.251099,502.843170 1924.883911,485.839844 
	C1923.248291,465.499939 1908.914551,454.280762 1888.042603,454.598419 
	C1867.204468,454.915558 1853.555786,466.640350 1852.082397,486.981689 
	C1851.014771,501.720367 1851.251587,516.580078 1851.482666,531.376892 
	C1851.633057,541.014587 1854.265503,550.116150 1861.283691,558.188965 
z"/>
<path fill="#BA85FB" opacity="1.000000" stroke="none" 
	d="
M2136.978027,420.967590 
	C2159.237061,432.808044 2170.051758,451.929047 2170.771240,475.912079 
	C2171.830322,511.203888 2171.252930,546.544983 2171.359863,581.865112 
	C2171.386475,590.690247 2171.364014,599.515564 2171.364014,608.670776 
	C2157.588623,608.670776 2144.027344,608.670776 2129.953369,608.670776 
	C2129.953369,603.601501 2129.953369,598.554138 2129.953369,593.338745 
	C2104.520264,615.835266 2075.670898,615.298340 2046.156982,606.673279 
	C2028.091309,601.393860 2017.554077,588.061523 2013.808472,569.490479 
	C2011.266235,556.885132 2011.116089,544.312073 2014.478760,531.890991 
	C2020.253784,510.558594 2035.640747,499.911591 2056.285400,496.133240 
	C2065.067871,494.525848 2074.151367,494.205261 2083.113281,494.016449 
	C2098.555664,493.691162 2114.009766,493.926392 2129.379395,493.926392 
	C2133.457520,467.223572 2117.986572,450.152283 2091.323730,451.317780 
	C2076.823975,451.951599 2063.526123,456.116364 2051.545654,464.860962 
	C2041.574219,456.517914 2031.654175,448.217987 2021.732910,439.916992 
	C2045.869385,411.512329 2099.555420,402.712677 2136.978027,420.967590 
M2080.708252,575.093567 
	C2084.367432,575.174500 2088.069580,575.648865 2091.677490,575.257263 
	C2100.071533,574.346252 2108.560303,573.609070 2116.743896,571.673828 
	C2123.453857,570.087158 2129.217773,565.915161 2129.625244,558.184387 
	C2130.129883,548.611206 2129.746094,538.991150 2129.746094,529.185974 
	C2110.554688,529.185974 2091.621582,528.773010 2072.721191,529.375061 
	C2064.354248,529.641663 2057.429688,533.819641 2054.618896,542.632385 
	C2049.599121,558.370178 2056.760254,570.695251 2072.875488,573.992615 
	C2075.150146,574.457947 2077.469727,574.703796 2080.708252,575.093567 
z"/>
<path fill="#BA85FB" opacity="1.000000" stroke="none" 
	d="
M1044.709961,382.999786 
	C1044.709961,367.224365 1044.709961,351.948944 1044.709961,336.430969 
	C1059.839478,336.430969 1074.421875,336.430969 1089.615845,336.430969 
	C1089.615845,338.703217 1089.617188,340.817841 1089.615723,342.932434 
	C1089.569336,410.896973 1089.521729,478.861511 1089.480103,546.826050 
	C1089.479004,548.657349 1089.457642,550.494446 1089.586792,552.318909 
	C1090.299438,562.386047 1094.418823,566.267761 1104.486206,566.374146 
	C1108.299927,566.414490 1112.114624,566.380798 1116.307617,566.380798 
	C1116.307617,580.648865 1116.307617,594.704895 1116.307617,609.553589 
	C1102.298218,608.617432 1088.097168,611.199585 1074.319702,606.707581 
	C1057.147705,601.108704 1046.450562,585.897827 1045.043335,565.398438 
	C1044.781372,561.581055 1044.783813,557.740845 1044.781372,553.911072 
	C1044.745972,497.107330 1044.730225,440.303558 1044.709961,382.999786 
z"/>
<path fill="#BA85FA" opacity="1.000000" stroke="none" 
	d="
M2225.790283,459.999878 
	C2225.790283,444.554901 2225.790283,429.609955 2225.790283,414.420563 
	C2241.556641,414.420563 2256.797119,414.420563 2272.735352,414.420563 
	C2272.735352,422.629852 2272.735352,430.657593 2272.735352,440.277100 
	C2285.201660,422.680328 2299.787109,411.618530 2320.697754,411.644257 
	C2336.038330,411.663116 2349.852295,415.787750 2361.525635,426.833649 
	C2352.447998,439.353302 2343.487305,451.711609 2334.296631,464.387085 
	C2325.774902,456.021393 2315.416260,454.025574 2304.235107,454.760681 
	C2286.588623,455.920807 2274.940918,467.001953 2273.016602,484.617645 
	C2272.583740,488.580231 2272.473389,492.594788 2272.474121,496.585388 
	C2272.481689,532.069214 2272.547119,567.553101 2272.595459,603.036926 
	C2272.597900,604.838196 2272.595703,606.639526 2272.595703,608.719849 
	C2256.920166,608.719849 2241.683105,608.719849 2225.790283,608.719849 
	C2225.790283,559.297180 2225.790283,509.898529 2225.790283,459.999878 
z"/>
<path fill="#B985F9" opacity="1.000000" stroke="none" 
	d="
M1154.464355,432.001648 
	C1154.464478,425.880646 1154.464478,420.259125 1154.464478,414.412842 
	C1169.612793,414.412842 1184.204102,414.412842 1199.087891,414.412842 
	C1199.087891,479.209106 1199.087891,543.922913 1199.087891,608.822510 
	C1184.296265,608.822510 1169.680542,608.822510 1154.464355,608.822510 
	C1154.464355,549.984314 1154.464355,491.242706 1154.464355,432.001648 
z"/>
<path fill="#B884F8" opacity="1.000000" stroke="none" 
	d="
M1175.000244,336.176453 
	C1183.287842,336.176453 1191.075562,336.176453 1199.116577,336.176453 
	C1199.116577,351.190887 1199.116577,365.789124 1199.116577,380.763428 
	C1184.380737,380.763428 1169.692749,380.763428 1154.730957,380.763428 
	C1154.730957,366.119812 1154.730957,351.530182 1154.730957,336.176453 
	C1161.358643,336.176453 1167.929443,336.176453 1175.000244,336.176453 
z"/>
<path fill="#503E6E" opacity="1.000000" stroke="none" 
	d="
M2493.464844,586.193359 
	C2493.490967,586.223694 2493.357422,585.865417 2493.357422,585.865417 
	C2493.357422,585.865417 2493.607666,585.998169 2493.491455,586.104614 
	C2493.375244,586.211121 2493.438965,586.163025 2493.464844,586.193359 
z"/>
<path fill="#FEFEFF" opacity="1.000000" stroke="none" 
	d="
M328.382874,345.228882 
	C348.099274,338.005646 365.324371,340.846771 379.616241,356.354309 
	C382.175903,359.131653 384.501862,362.353729 386.050232,365.771637 
	C387.725464,369.469421 390.049774,370.378326 393.826447,370.343994 
	C411.658112,370.181976 429.492126,370.249908 447.325256,370.279572 
	C466.744995,370.311890 481.087616,384.567291 481.095490,403.939423 
	C481.123199,472.272095 480.966339,540.605286 481.204010,608.937073 
	C481.264038,626.199280 466.270508,641.236145 448.805878,641.168823 
	C380.974213,640.907288 313.140320,641.186218 245.309250,640.857422 
	C239.010834,640.826904 231.931259,640.715088 226.885590,634.797546 
	C225.006409,632.593750 220.469833,632.321777 219.169662,630.023499 
	C215.831360,624.122437 211.690170,618.826965 211.774521,610.911743 
	C212.211441,569.918762 211.777054,528.916992 211.740829,487.918213 
	C211.714645,458.262512 211.751770,428.606171 211.927948,398.951111 
	C212.012436,384.729218 225.143661,371.958710 239.431015,371.921173 
	C258.597382,371.870819 277.764404,371.835419 296.930084,371.958954 
	C301.412994,371.987823 303.456055,370.353119 305.955536,366.228973 
	C311.256805,357.481964 317.988953,349.478638 328.382874,345.228882 
M315.704956,582.544617 
	C317.592499,581.302979 319.760651,580.341553 321.323975,578.776184 
	C336.152679,563.927368 350.834290,548.931824 365.644653,534.064575 
	C387.281616,512.344604 408.928986,490.634064 430.730621,469.080048 
	C434.156769,465.692810 434.302612,463.384827 430.700378,460.187073 
	C426.471100,456.432648 422.642517,452.228027 418.621826,448.237122 
	C414.212555,443.860443 413.910614,443.848328 409.462128,448.294312 
	C390.016602,467.729004 370.587769,487.180359 351.148254,506.621063 
	C340.898315,516.871582 330.558868,527.034546 320.434631,537.407593 
	C317.538879,540.374451 315.611206,540.445068 312.752045,537.321594 
	C307.885803,532.005554 302.618530,527.052185 297.442932,522.025513 
	C294.836517,519.494141 291.913483,517.278503 289.401855,514.662598 
	C286.564209,511.707062 284.170868,508.318329 281.269257,505.435028 
	C280.444946,504.615875 278.156128,504.255493 277.175354,504.810120 
	C274.783752,506.162628 272.585938,507.995880 270.632294,509.956573 
	C266.349823,514.254517 262.267029,518.751343 257.589874,523.710754 
	C257.857788,524.186768 258.379395,525.851868 259.472534,526.945740 
	C277.958252,545.445251 296.515045,563.873657 315.704956,582.544617 
M344.619812,374.790222 
	C337.275879,375.521912 332.092041,379.572510 330.375336,385.920776 
	C328.593903,392.508362 331.029327,399.498566 336.362640,403.105835 
	C341.828827,406.802979 348.969574,406.868073 354.149231,403.267975 
	C359.912720,399.262024 362.408569,392.313843 360.441559,385.750458 
	C358.483948,379.218445 353.269440,375.393097 344.619812,374.790222 
z"/>
<path fill="#0E1118" opacity="1.000000" stroke="none" 
	d="
M1643.000000,490.093475 
	C1657.630859,490.373901 1671.836304,489.843414 1685.874512,491.132660 
	C1704.965332,492.885803 1716.269287,505.939270 1717.052490,525.107361 
	C1718.044678,549.389587 1706.256836,564.107178 1681.830200,565.578918 
	C1659.141968,566.945862 1636.306519,565.870483 1613.249268,565.870483 
	C1613.249268,540.880371 1613.249268,515.817749 1613.249268,490.093475 
	C1622.990112,490.093475 1632.744995,490.093475 1643.000000,490.093475 
z"/>
<path fill="#0D1118" opacity="1.000000" stroke="none" 
	d="
M1660.000000,378.876709 
	C1668.805542,379.193909 1677.236816,378.710480 1685.391479,379.990143 
	C1704.773682,383.031616 1714.613525,395.586761 1713.683472,414.741211 
	C1712.708984,434.811737 1701.533203,447.041901 1681.556641,447.721527 
	C1658.941528,448.490936 1636.280273,447.898987 1613.301636,447.898987 
	C1613.301636,425.043915 1613.301636,402.319366 1613.301636,378.877563 
	C1628.650635,378.877563 1644.075317,378.877563 1660.000000,378.876709 
z"/>
<path fill="#0D1118" opacity="1.000000" stroke="none" 
	d="
M2468.666504,569.961670 
	C2459.403320,572.103333 2450.865234,570.979248 2442.781494,567.089478 
	C2432.841797,562.306763 2428.326904,553.438782 2426.261963,543.216187 
	C2425.324707,538.573975 2425.129639,533.728882 2425.078613,528.970703 
	C2424.930420,515.147461 2424.414307,501.287384 2425.187256,487.505920 
	C2426.053955,472.049194 2433.447510,456.916138 2450.071289,453.714691 
	C2465.116699,450.817200 2480.658447,453.037689 2488.316650,466.433563 
	C2490.571533,470.377563 2492.706787,475.051666 2492.820801,479.445038 
	C2493.359863,500.234528 2493.883301,521.071716 2493.024414,541.834473 
	C2492.385986,557.275085 2484.056885,565.813904 2468.666504,569.961670 
z"/>
<path fill="#0E1218" opacity="1.000000" stroke="none" 
	d="
M1297.682861,479.851013 
	C1300.084717,464.458130 1309.279175,455.114349 1323.668579,453.095245 
	C1341.054443,450.655701 1354.951416,456.825806 1360.900635,470.639984 
	C1363.414062,476.475922 1365.150757,483.081818 1365.345337,489.396118 
	C1365.847412,505.694122 1366.297241,522.108215 1364.947388,538.324463 
	C1362.299316,570.139160 1334.972168,575.016357 1316.240601,568.244202 
	C1304.034058,563.831116 1297.971191,553.927612 1297.543091,541.706238 
	C1296.826904,521.256958 1297.508789,500.758667 1297.682861,479.851013 
z"/>
<path fill="#0E1218" opacity="1.000000" stroke="none" 
	d="
M1861.045410,557.922241 
	C1854.265503,550.116150 1851.633057,541.014587 1851.482666,531.376892 
	C1851.251587,516.580078 1851.014771,501.720367 1852.082397,486.981689 
	C1853.555786,466.640350 1867.204468,454.915558 1888.042603,454.598419 
	C1908.914551,454.280762 1923.248291,465.499939 1924.883911,485.839844 
	C1926.251099,502.843170 1925.983154,520.094299 1924.918457,537.140686 
	C1924.038940,551.223206 1916.701538,562.336182 1902.529663,566.637451 
	C1887.548950,571.184204 1873.193359,569.960388 1861.045410,557.922241 
z"/>
<path fill="#0E1218" opacity="1.000000" stroke="none" 
	d="
M2080.238281,575.072388 
	C2077.469727,574.703796 2075.150146,574.457947 2072.875488,573.992615 
	C2056.760254,570.695251 2049.599121,558.370178 2054.618896,542.632385 
	C2057.429688,533.819641 2064.354248,529.641663 2072.721191,529.375061 
	C2091.621582,528.773010 2110.554688,529.185974 2129.746094,529.185974 
	C2129.746094,538.991150 2130.129883,548.611206 2129.625244,558.184387 
	C2129.217773,565.915161 2123.453857,570.087158 2116.743896,571.673828 
	C2108.560303,573.609070 2100.071533,574.346252 2091.677490,575.257263 
	C2088.069580,575.648865 2084.367432,575.174500 2080.238281,575.072388 
z"/>
<path fill="#BC89FB" opacity="1.000000" stroke="none" 
	d="
M315.380524,582.431213 
	C296.515045,563.873657 277.958252,545.445251 259.472534,526.945740 
	C258.379395,525.851868 257.857788,524.186768 257.589874,523.710754 
	C262.267029,518.751343 266.349823,514.254517 270.632294,509.956573 
	C272.585938,507.995880 274.783752,506.162628 277.175354,504.810120 
	C278.156128,504.255493 280.444946,504.615875 281.269257,505.435028 
	C284.170868,508.318329 286.564209,511.707062 289.401855,514.662598 
	C291.913483,517.278503 294.836517,519.494141 297.442932,522.025513 
	C302.618530,527.052185 307.885803,532.005554 312.752045,537.321594 
	C315.611206,540.445068 317.538879,540.374451 320.434631,537.407593 
	C330.558868,527.034546 340.898315,516.871582 351.148254,506.621063 
	C370.587769,487.180359 390.016602,467.729004 409.462128,448.294312 
	C413.910614,443.848328 414.212555,443.860443 418.621826,448.237122 
	C422.642517,452.228027 426.471100,456.432648 430.700378,460.187073 
	C434.302612,463.384827 434.156769,465.692810 430.730621,469.080048 
	C408.928986,490.634064 387.281616,512.344604 365.644653,534.064575 
	C350.834290,548.931824 336.152679,563.927368 321.323975,578.776184 
	C319.760651,580.341553 317.592499,581.302979 315.380524,582.431213 
z"/>
<path fill="#BC89FB" opacity="1.000000" stroke="none" 
	d="
M345.055786,374.786804 
	C353.269440,375.393097 358.483948,379.218445 360.441559,385.750458 
	C362.408569,392.313843 359.912720,399.262024 354.149231,403.267975 
	C348.969574,406.868073 341.828827,406.802979 336.362640,403.105835 
	C331.029327,399.498566 328.593903,392.508362 330.375336,385.920776 
	C332.092041,379.572510 337.275879,375.521912 345.055786,374.786804 
z"/>
</svg>