<svg version="1.1" id="Layer_1" xmlns="http://www.w3.org/2000/svg" xmlns:xlink="http://www.w3.org/1999/xlink" x="0px" y="0px"
	 width="100%" viewBox="0 0 576 194" enable-background="new 0 0 576 194" xml:space="preserve">
<path fill="#0F1319" opacity="1.000000" stroke="none" 
	d="
M577.000000,120.000000 
	C577.000000,144.942612 577.000000,169.885223 577.000000,195.000000 
	C538.645935,195.000000 500.291626,195.000000 461.548553,194.537277 
	C461.159790,179.677490 461.159790,165.280426 461.159790,150.470139 
	C470.827332,150.470139 479.764832,150.470139 488.821106,150.470139 
	C488.821106,145.650406 488.821106,141.257187 488.821106,136.871735 
	C465.373688,136.871735 442.213654,136.871735 419.040405,136.871735 
	C419.040405,141.547226 419.040405,145.812531 419.040405,150.632431 
	C428.339447,150.632431 437.398499,150.632431 447.000000,150.632431 
	C447.000000,165.791229 447.000000,180.395615 447.000000,195.000000 
	C436.312439,195.000000 425.624878,195.000000 414.100861,194.776184 
	C417.998718,190.567780 419.416626,185.405899 418.882324,179.416107 
	C418.631836,176.608093 418.855042,173.759109 418.836578,170.928879 
	C418.778961,162.080948 414.866516,158.046677 406.121765,158.009720 
	C393.135681,157.954865 380.149200,158.003128 367.162903,157.984314 
	C365.747833,157.982254 364.332977,157.827545 363.109161,157.754974 
	C363.109161,155.127747 363.109161,153.015594 363.109161,150.319214 
	C379.556061,150.319214 395.742401,150.319214 411.918030,150.319214 
	C411.918030,145.458878 411.918030,141.192230 411.918030,136.646866 
	C393.715179,136.646866 375.762970,136.458893 357.818756,136.754990 
	C352.013824,136.850784 348.682953,141.081619 348.511780,147.069229 
	C348.388123,151.394485 348.469666,155.726166 348.488831,160.054840 
	C348.525513,168.336990 352.107483,171.987610 360.254608,171.999435 
	C373.407379,172.018539 386.560211,171.997833 399.713013,172.014297 
	C401.154236,172.016098 402.595276,172.151382 403.992432,172.222519 
	C403.992432,175.263779 403.992432,177.885803 403.992432,181.087677 
	C385.483734,181.087677 367.132996,181.087677 348.798004,181.087677 
	C348.509796,186.112061 348.254883,190.556030 348.000000,195.000000 
	C345.958344,195.000000 343.916656,195.000000 341.366028,194.539413 
	C340.857086,189.810486 340.857086,185.542145 340.857086,180.922516 
	C324.441925,180.922516 308.663696,180.922516 292.767517,180.922516 
	C292.767517,177.823807 292.767517,175.094101 292.767517,171.952606 
	C306.610260,171.952606 320.204285,171.952606 333.915283,171.952606 
	C333.915283,167.139297 333.915283,162.746033 333.915283,157.945038 
	C320.069672,157.945038 306.473541,157.945038 292.879456,157.945038 
	C292.879456,155.309952 292.879456,153.093613 292.879456,150.386139 
	C308.996552,150.386139 324.755127,150.386139 340.635864,150.386139 
	C340.635864,145.614761 340.635864,141.342697 340.635864,137.067780 
	C339.990997,136.855255 339.526825,136.569183 339.062134,136.568375 
	C322.233765,136.539139 305.403473,136.388702 288.577850,136.602356 
	C281.778870,136.688690 278.094604,140.922592 278.022003,147.935760 
	C277.923706,157.432465 278.078491,166.931885 277.969604,176.428360 
	C277.893188,183.091217 277.217590,189.858536 283.675446,194.411224 
	C283.450317,194.607483 283.225159,194.803741 283.000000,195.000000 
	C265.312439,195.000000 247.624878,195.000000 229.267487,194.569702 
	C228.597656,188.876205 228.597656,183.613037 228.597656,177.896683 
	C241.285995,177.896683 253.522156,177.896683 265.706360,177.896683 
	C265.706360,173.024490 265.706360,168.624191 265.706360,163.796326 
	C253.173233,163.796326 240.933777,163.796326 228.801712,163.796326 
	C228.801712,159.247864 228.801712,155.141922 228.801712,150.367889 
	C243.595932,150.367889 258.119537,150.367889 272.538788,150.367889 
	C272.538788,145.429535 272.538788,141.178177 272.538788,136.654922 
	C255.951523,136.654922 239.658936,136.432556 223.378006,136.770554 
	C217.343582,136.895844 214.031448,141.251114 214.011658,147.536880 
	C213.961838,163.357773 213.998184,179.178940 214.000000,195.000000 
	C181.312439,195.000000 148.624878,195.000000 115.165741,194.672928 
	C120.258453,192.456940 126.122749,190.568024 132.328583,188.610077 
	C159.825912,177.575150 178.891220,158.701416 189.126312,130.686111 
	C190.903702,123.256073 192.472916,116.133369 194.206528,108.635315 
	C194.365616,102.125137 194.360321,95.990326 194.394440,89.425911 
	C193.641876,84.657257 192.849915,80.318199 192.074905,75.580368 
	C190.755478,71.110199 189.419083,67.038818 188.060577,62.592522 
	C186.376419,58.807621 184.714371,55.397636 182.992569,51.639748 
	C180.340912,47.421936 177.749023,43.552029 174.961609,39.415546 
	C171.414474,35.435802 168.062866,31.722631 164.632050,27.710155 
	C163.089005,26.244568 161.625183,25.078289 159.994537,23.610161 
	C157.283630,21.509176 154.739502,19.710041 152.010773,17.622265 
	C149.223175,15.886169 146.620178,14.438714 143.804352,12.718916 
	C141.450790,11.472222 139.310074,10.497872 136.929016,9.318634 
	C135.124496,8.523433 133.560333,7.933120 131.662888,7.178514 
	C129.223618,6.383302 127.117630,5.752386 124.671745,4.934806 
	C122.313248,4.261621 120.294632,3.775100 117.931747,3.145548 
	C117.058319,2.335012 116.529160,1.667507 116.000000,1.000001 
	C148.354233,1.000000 180.708450,1.000000 213.509033,1.468194 
	C213.955368,21.018986 213.955368,40.101585 213.955368,59.250381 
	C219.031433,59.250381 223.465607,59.250381 228.339569,59.250381 
	C228.339569,51.714260 228.339569,44.435604 228.339569,36.844193 
	C242.018799,36.844193 255.259903,36.844193 268.980316,36.844193 
	C268.980316,44.257797 268.980316,51.674335 268.980316,59.146538 
	C274.010193,59.146538 278.557861,59.146538 283.396881,59.146538 
	C283.396881,41.299736 283.379486,23.824526 283.423248,6.349468 
	C283.427704,4.565842 283.798981,2.783135 284.000000,1.000000 
	C292.020905,1.000000 300.041809,1.000000 308.932617,1.191156 
	C304.672424,5.782500 302.468323,11.688532 300.857941,18.035807 
	C299.348145,23.986565 297.362366,29.816351 295.593506,35.701626 
	C293.271118,43.428635 290.956085,51.157860 288.446960,59.522549 
	C293.167206,59.522549 297.128876,59.371830 301.072327,59.574818 
	C303.762268,59.713284 304.771851,58.650723 305.434082,56.106190 
	C307.776550,47.105354 310.374084,38.170246 312.927765,29.225311 
	C314.245605,24.609308 314.329315,18.131029 317.416809,15.937872 
	C320.773071,13.553793 326.967773,15.159661 331.925415,15.050682 
	C332.225769,15.044081 332.530945,15.256373 333.154480,15.483704 
	C334.488068,20.498949 335.869263,25.693167 337.425293,31.544909 
	C330.539581,31.544909 324.455505,31.544909 318.325134,31.544909 
	C317.192657,36.319069 316.168823,40.635284 315.009186,45.523911 
	C322.889801,45.523911 330.333832,45.661072 337.768341,45.454960 
	C340.655365,45.374916 341.933105,46.335728 342.521088,49.120049 
	C343.237122,52.510708 344.386261,55.809902 345.375397,59.243530 
	C350.616516,59.243530 355.684052,59.243530 361.316315,59.243530 
	C357.330627,45.829609 353.484955,32.817501 349.593628,19.819063 
	C347.560791,13.028654 346.315277,5.777212 339.457458,1.672944 
	C339.638306,1.448629 339.819153,1.224314 340.000000,0.999999 
	C349.687561,1.000000 359.375122,1.000000 369.934265,1.197354 
	C366.063416,5.643625 365.278320,11.136676 365.420044,17.151834 
	C365.643677,26.644918 365.454742,36.147221 365.486389,45.645466 
	C365.520752,55.959927 369.015625,59.488953 379.280823,59.511349 
	C394.944672,59.545521 410.608704,59.527798 426.272614,59.507771 
	C427.721680,59.505917 429.170532,59.328953 430.594543,59.234947 
	C430.594543,54.542583 430.594543,50.271778 430.594543,45.610714 
	C413.740723,45.610714 397.128418,45.610714 380.373352,45.610714 
	C380.373352,35.176922 380.373352,25.142601 380.373352,14.754100 
	C397.332794,14.754100 413.927094,14.754100 431.000000,14.754100 
	C431.000000,9.932911 431.000000,5.466455 431.000000,1.000000 
	C433.041656,1.000000 435.083344,1.000000 437.614014,1.466195 
	C438.102997,21.007271 438.102997,40.082150 438.102997,59.123528 
	C443.411041,59.123528 447.976959,59.123528 452.876709,59.123528 
	C452.876709,51.954430 452.876709,45.178429 452.876709,38.008747 
	C455.349426,38.008747 457.515472,38.259682 459.601807,37.958511 
	C464.532806,37.246727 467.977783,38.992199 471.026611,42.976334 
	C474.761414,47.856937 479.142761,52.248360 483.325928,56.776081 
	C484.302643,57.833214 485.570801,59.297329 486.767426,59.358952 
	C492.181915,59.637772 497.618835,59.480862 504.127502,59.480862 
	C495.057892,48.915585 486.755676,39.244316 478.394226,29.503988 
	C485.738983,19.814207 492.869476,10.407100 500.000000,0.999997 
	C525.591614,1.000000 551.183167,1.000000 577.000000,1.000000 
	C577.000000,25.020426 577.000000,49.041553 576.790222,73.913330 
	C573.207397,71.678879 570.256165,68.070358 564.953613,68.121399 
	C551.627319,68.249680 538.298462,68.104012 524.971497,68.193916 
	C519.850891,68.228455 514.947571,70.561020 514.279846,75.480217 
	C513.202698,83.414886 513.150024,91.670479 514.066223,99.629150 
	C514.664673,104.827057 519.472595,107.135536 525.517822,107.158035 
	C537.630188,107.203125 549.742920,107.171417 561.846252,107.171417 
	C561.846252,109.998962 561.846252,112.246651 561.846252,114.916382 
	C559.128540,114.916382 556.720825,114.916382 554.217102,114.916382 
	C554.217102,119.107719 554.217102,122.860672 554.217102,126.832695 
	C562.712585,126.982475 571.489868,129.067581 577.000000,120.000000 
M411.496460,126.997192 
	C415.827454,126.988235 420.164612,127.122963 424.487946,126.936302 
	C430.813904,126.663170 434.666046,122.872932 435.030334,116.578094 
	C435.251373,112.758583 434.998901,108.912613 435.192535,105.090355 
	C435.562500,97.787971 434.014343,91.809311 425.493988,90.457458 
	C425.493988,86.737656 425.558655,83.409515 425.481079,80.084686 
	C425.299896,72.319916 421.479584,68.561478 413.635437,68.527588 
	C401.641602,68.475761 389.647369,68.499321 377.653351,68.518532 
	C368.505554,68.533180 364.904938,72.008705 364.856628,81.126762 
	C364.780792,95.452583 364.829834,109.779114 364.853851,124.105293 
	C364.855408,125.024559 365.096313,125.943428 365.244904,126.997192 
	C380.539734,126.997192 395.518768,126.997192 411.496460,126.997192 
M453.083038,68.500031 
	C444.997894,69.181793 441.880066,72.479080 441.841827,80.606750 
	C441.790100,91.599640 441.819366,102.592957 441.831665,113.586082 
	C441.842590,123.367516 445.490173,126.974922 455.479279,126.994652 
	C470.469879,127.024261 485.460571,127.008392 500.451202,126.991417 
	C501.709137,126.989998 502.966888,126.834038 504.133118,126.756004 
	C504.133118,121.954697 504.133118,117.571732 504.133118,112.802437 
	C488.001740,112.802437 472.244263,112.802437 456.508911,112.802437 
	C456.508911,109.672302 456.508911,106.954147 456.508911,103.898743 
	C470.437805,103.898743 484.032501,103.898743 497.761719,103.898743 
	C497.761719,99.147469 497.761719,94.748566 497.761719,89.828796 
	C483.810089,89.828796 470.090240,89.828796 456.444916,89.828796 
	C456.444916,87.204994 456.444916,85.109428 456.444916,82.344742 
	C472.572845,82.344742 488.441376,82.344742 504.180389,82.344742 
	C504.180389,77.404938 504.180389,73.146858 504.180389,68.499092 
	C487.229370,68.499092 470.605072,68.499092 453.083038,68.500031 
M286.831818,95.500290 
	C286.831940,101.830627 286.784851,108.161415 286.843842,114.491203 
	C286.921478,122.816063 290.769623,126.906616 298.946259,126.965546 
	C314.604706,127.078377 330.265106,127.077721 345.923553,126.962685 
	C353.400238,126.907761 357.137085,122.921455 357.158966,115.386703 
	C357.193298,103.559067 357.190735,91.731186 357.159698,79.903534 
	C357.140808,72.705360 353.390656,68.615562 346.230682,68.552536 
	C330.072906,68.410309 313.912598,68.436844 297.754242,68.540237 
	C291.082916,68.582916 287.196960,72.389656 286.926483,79.011040 
	C286.715851,84.166916 286.850586,89.336899 286.831818,95.500290 
M237.500275,68.453522 
	C228.737686,68.453522 219.975098,68.453522 211.334213,68.453522 
	C211.334213,73.480194 211.334213,77.872086 211.334213,82.557343 
	C220.624832,82.557343 229.565765,82.557343 239.126373,82.557343 
	C239.126373,97.541939 239.126373,112.229050 239.126373,126.810349 
	C244.203949,126.810349 248.653763,126.810349 253.655029,126.810349 
	C253.655029,112.065987 253.655029,97.521202 253.655029,82.511215 
	C263.103699,82.511215 272.004700,82.511215 281.116425,82.511215 
	C281.116425,77.646065 281.116425,73.260818 281.116425,68.453568 
	C266.712769,68.453568 252.606537,68.453568 237.500275,68.453522 
M520.474487,127.005592 
	C522.878357,127.005592 525.282227,127.005592 527.475098,127.005592 
	C527.475098,122.499268 527.475098,118.780167 527.475098,116.049500 
	C522.302124,114.392624 517.745605,112.933197 513.297241,111.508415 
	C513.297241,116.108047 513.297241,121.443199 513.297241,127.005592 
	C515.570557,127.005592 517.543030,127.005592 520.474487,127.005592 
z"/>
<path fill="#E4ECDD" opacity="1.000000" stroke="none" 
	d="
M348.468628,195.000000 
	C348.254883,190.556030 348.509796,186.112061 348.798004,181.087677 
	C367.132996,181.087677 385.483734,181.087677 403.992432,181.087677 
	C403.992432,177.885803 403.992432,175.263779 403.992432,172.222519 
	C402.595276,172.151382 401.154236,172.016098 399.713013,172.014297 
	C386.560211,171.997833 373.407379,172.018539 360.254608,171.999435 
	C352.107483,171.987610 348.525513,168.336990 348.488831,160.054840 
	C348.469666,155.726166 348.388123,151.394485 348.511780,147.069229 
	C348.682953,141.081619 352.013824,136.850784 357.818756,136.754990 
	C375.762970,136.458893 393.715179,136.646866 411.918030,136.646866 
	C411.918030,141.192230 411.918030,145.458878 411.918030,150.319214 
	C395.742401,150.319214 379.556061,150.319214 363.109161,150.319214 
	C363.109161,153.015594 363.109161,155.127747 363.109161,157.754974 
	C364.332977,157.827545 365.747833,157.982254 367.162903,157.984314 
	C380.149200,158.003128 393.135681,157.954865 406.121765,158.009720 
	C414.866516,158.046677 418.778961,162.080948 418.836578,170.928879 
	C418.855042,173.759109 418.631836,176.608093 418.882324,179.416107 
	C419.416626,185.405899 417.998718,190.567780 413.632202,194.776184 
	C392.312439,195.000000 370.624878,195.000000 348.468628,195.000000 
z"/>
<path fill="#E5EDDE" opacity="1.000000" stroke="none" 
	d="
M283.468658,195.000000 
	C283.225159,194.803741 283.450317,194.607483 283.675446,194.411224 
	C277.217590,189.858536 277.893188,183.091217 277.969604,176.428360 
	C278.078491,166.931885 277.923706,157.432465 278.022003,147.935760 
	C278.094604,140.922592 281.778870,136.688690 288.577850,136.602356 
	C305.403473,136.388702 322.233765,136.539139 339.062134,136.568375 
	C339.526825,136.569183 339.990997,136.855255 340.635864,137.067780 
	C340.635864,141.342697 340.635864,145.614761 340.635864,150.386139 
	C324.755127,150.386139 308.996552,150.386139 292.879456,150.386139 
	C292.879456,153.093613 292.879456,155.309952 292.879456,157.945038 
	C306.473541,157.945038 320.069672,157.945038 333.915283,157.945038 
	C333.915283,162.746033 333.915283,167.139297 333.915283,171.952606 
	C320.204285,171.952606 306.610260,171.952606 292.767517,171.952606 
	C292.767517,175.094101 292.767517,177.823807 292.767517,180.922516 
	C308.663696,180.922516 324.441925,180.922516 340.857086,180.922516 
	C340.857086,185.542145 340.857086,189.810486 340.928528,194.539413 
	C321.979095,195.000000 302.958221,195.000000 283.468658,195.000000 
z"/>
<path fill="#E5EDDE" opacity="1.000000" stroke="none" 
	d="
M577.000000,119.531342 
	C571.489868,129.067581 562.712585,126.982475 554.217102,126.832695 
	C554.217102,122.860672 554.217102,119.107719 554.217102,114.916382 
	C556.720825,114.916382 559.128540,114.916382 561.846252,114.916382 
	C561.846252,112.246651 561.846252,109.998962 561.846252,107.171417 
	C549.742920,107.171417 537.630188,107.203125 525.517822,107.158035 
	C519.472595,107.135536 514.664673,104.827057 514.066223,99.629150 
	C513.150024,91.670479 513.202698,83.414886 514.279846,75.480217 
	C514.947571,70.561020 519.850891,68.228455 524.971497,68.193916 
	C538.298462,68.104012 551.627319,68.249680 564.953613,68.121399 
	C570.256165,68.070358 573.207397,71.678879 576.790222,74.381989 
	C577.000000,74.444443 577.000000,74.888893 576.714722,75.532303 
	C576.619568,76.154167 576.809814,76.577080 577.000000,76.999992 
	C577.000000,91.020897 577.000000,105.041786 577.000000,119.531342 
M559.942688,83.140450 
	C549.920654,83.140450 539.898560,83.140450 529.717651,83.140450 
	C529.717651,86.183319 529.717651,88.933914 529.717651,91.930099 
	C539.969604,91.930099 549.989441,91.930099 560.414124,91.930099 
	C560.414124,89.147835 560.414124,86.532516 559.942688,83.140450 
z"/>
<path fill="#E3EBDC" opacity="1.000000" stroke="none" 
	d="
M283.533875,1.000000 
	C283.798981,2.783135 283.427704,4.565842 283.423248,6.349468 
	C283.379486,23.824526 283.396881,41.299736 283.396881,59.146538 
	C278.557861,59.146538 274.010193,59.146538 268.980316,59.146538 
	C268.980316,51.674335 268.980316,44.257797 268.980316,36.844193 
	C255.259903,36.844193 242.018799,36.844193 228.339569,36.844193 
	C228.339569,44.435604 228.339569,51.714260 228.339569,59.250381 
	C223.465607,59.250381 219.031433,59.250381 213.955368,59.250381 
	C213.955368,40.101585 213.955368,21.018986 213.977692,1.468194 
	C218.356903,1.000000 222.713806,1.000000 227.670074,1.451619 
	C228.269440,8.638511 228.269440,15.373783 228.269440,22.176514 
	C242.277786,22.176514 255.472534,22.176514 269.000000,22.176514 
	C269.000000,14.918266 269.000000,7.959133 269.000000,1.000000 
	C273.689240,1.000000 278.378510,1.000000 283.533875,1.000000 
z"/>
<path fill="#E2EADB" opacity="1.000000" stroke="none" 
	d="
M339.531342,0.999999 
	C339.819153,1.224314 339.638306,1.448629 339.457458,1.672944 
	C346.315277,5.777212 347.560791,13.028654 349.593628,19.819063 
	C353.484955,32.817501 357.330627,45.829609 361.316315,59.243530 
	C355.684052,59.243530 350.616516,59.243530 345.375397,59.243530 
	C344.386261,55.809902 343.237122,52.510708 342.521088,49.120049 
	C341.933105,46.335728 340.655365,45.374916 337.768341,45.454960 
	C330.333832,45.661072 322.889801,45.523911 315.009186,45.523911 
	C316.168823,40.635284 317.192657,36.319069 318.325134,31.544909 
	C324.455505,31.544909 330.539581,31.544909 337.425293,31.544909 
	C335.869263,25.693167 334.488068,20.498949 333.154480,15.483704 
	C332.530945,15.256373 332.225769,15.044081 331.925415,15.050682 
	C326.967773,15.159661 320.773071,13.553793 317.416809,15.937872 
	C314.329315,18.131029 314.245605,24.609308 312.927765,29.225311 
	C310.374084,38.170246 307.776550,47.105354 305.434082,56.106190 
	C304.771851,58.650723 303.762268,59.713284 301.072327,59.574818 
	C297.128876,59.371830 293.167206,59.522549 288.446960,59.522549 
	C290.956085,51.157860 293.271118,43.428635 295.593506,35.701626 
	C297.362366,29.816351 299.348145,23.986565 300.857941,18.035807 
	C302.468323,11.688532 304.672424,5.782500 309.401245,1.191156 
	C309.444458,1.000000 309.888885,1.000000 310.539185,1.297056 
	C311.163361,1.396074 311.581696,1.198037 312.000000,1.000000 
	C321.020905,1.000000 330.041779,1.000000 339.531342,0.999999 
z"/>
<path fill="#E3EBDC" opacity="1.000000" stroke="none" 
	d="
M430.531342,1.000000 
	C431.000000,5.466455 431.000000,9.932911 431.000000,14.754100 
	C413.927094,14.754100 397.332794,14.754100 380.373352,14.754100 
	C380.373352,25.142601 380.373352,35.176922 380.373352,45.610714 
	C397.128418,45.610714 413.740723,45.610714 430.594543,45.610714 
	C430.594543,50.271778 430.594543,54.542583 430.594543,59.234947 
	C429.170532,59.328953 427.721680,59.505917 426.272614,59.507771 
	C410.608704,59.527798 394.944672,59.545521 379.280823,59.511349 
	C369.015625,59.488953 365.520752,55.959927 365.486389,45.645466 
	C365.454742,36.147221 365.643677,26.644918 365.420044,17.151834 
	C365.278320,11.136676 366.063416,5.643625 370.402893,1.197354 
	C390.020905,1.000000 410.041779,1.000000 430.531342,1.000000 
z"/>
<path fill="#E2EADC" opacity="1.000000" stroke="none" 
	d="
M499.532043,0.999997 
	C492.869476,10.407100 485.738983,19.814207 478.394226,29.503988 
	C486.755676,39.244316 495.057892,48.915585 504.127502,59.480862 
	C497.618835,59.480862 492.181915,59.637772 486.767426,59.358952 
	C485.570801,59.297329 484.302643,57.833214 483.325928,56.776081 
	C479.142761,52.248360 474.761414,47.856937 471.026611,42.976334 
	C467.977783,38.992199 464.532806,37.246727 459.601807,37.958511 
	C457.515472,38.259682 455.349426,38.008747 452.876709,38.008747 
	C452.876709,45.178429 452.876709,51.954430 452.876709,59.123528 
	C447.976959,59.123528 443.411041,59.123528 438.102997,59.123528 
	C438.102997,40.082150 438.102997,21.007271 438.051514,1.466195 
	C442.689240,1.000000 447.378510,1.000000 452.430969,1.458799 
	C452.794220,9.170224 452.794220,16.422852 452.794220,23.989410 
	C455.289551,23.989410 457.297913,23.744698 459.224274,24.038200 
	C463.831879,24.740229 466.921997,23.125950 469.523132,19.174274 
	C472.803925,14.190060 476.811371,9.688788 480.376831,4.883810 
	C481.188477,3.789994 481.472900,2.304971 482.000000,0.999999 
	C487.688049,1.000000 493.376068,1.000000 499.532043,0.999997 
z"/>
<path fill="#E3EBDD" opacity="1.000000" stroke="none" 
	d="
M214.466125,195.000000 
	C213.998184,179.178940 213.961838,163.357773 214.011658,147.536880 
	C214.031448,141.251114 217.343582,136.895844 223.378006,136.770554 
	C239.658936,136.432556 255.951523,136.654922 272.538788,136.654922 
	C272.538788,141.178177 272.538788,145.429535 272.538788,150.367889 
	C258.119537,150.367889 243.595932,150.367889 228.801712,150.367889 
	C228.801712,155.141922 228.801712,159.247864 228.801712,163.796326 
	C240.933777,163.796326 253.173233,163.796326 265.706360,163.796326 
	C265.706360,168.624191 265.706360,173.024490 265.706360,177.896683 
	C253.522156,177.896683 241.285995,177.896683 228.597656,177.896683 
	C228.597656,183.613037 228.597656,188.876205 228.798828,194.569702 
	C224.310745,195.000000 219.621490,195.000000 214.466125,195.000000 
z"/>
<path fill="#0E1217" opacity="1.000000" stroke="none" 
	d="
M1.000000,87.000000 
	C1.000000,58.406860 1.000000,29.813721 1.000000,1.000000 
	C29.020508,1.000000 57.041595,1.000000 85.404465,1.329844 
	C84.836304,1.871472 83.926369,2.083254 82.626434,2.284321 
	C78.817841,3.152095 75.399231,4.030584 71.582703,4.913863 
	C66.455589,6.705113 61.726402,8.491573 56.665100,10.370855 
	C50.832741,13.761216 45.030182,16.648945 39.892960,20.438599 
	C27.900444,29.285299 18.197382,40.200634 11.697201,54.152206 
	C10.063308,57.583229 8.694744,60.789196 7.157151,64.336395 
	C6.052470,67.781876 5.116818,70.886116 4.053415,74.361847 
	C3.349013,77.822754 2.772362,80.912170 2.094098,84.325684 
	C1.661657,85.433189 1.330828,86.216591 1.000000,87.000000 
z"/>
<path fill="#0D1218" opacity="1.000000" stroke="none" 
	d="
M81.000000,195.000000 
	C54.406906,195.000000 27.813808,195.000000 1.000000,195.000000 
	C1.000000,168.979523 1.000000,142.958420 1.253013,116.113785 
	C2.246558,116.663589 2.987089,118.036926 3.730488,119.786621 
	C4.262733,122.106194 4.792110,124.049400 5.353477,126.342896 
	C6.236648,128.833435 7.087830,130.973694 7.952852,133.471039 
	C8.962130,135.909821 9.957566,137.991516 10.993097,140.420502 
	C12.289702,142.953217 13.546212,145.138641 14.878996,147.648666 
	C16.213686,149.795135 17.472103,151.617020 18.803822,153.750656 
	C19.953110,155.368042 21.029093,156.673645 22.199665,158.286194 
	C23.729954,160.126999 25.165657,161.660858 26.706556,163.527618 
	C30.445549,167.148041 34.079346,170.435562 37.905388,173.968674 
	C40.680065,175.988800 43.262501,177.763336 46.075916,179.764496 
	C49.531376,181.678650 52.755856,183.366196 56.202332,185.320892 
	C60.281277,187.039413 64.138229,188.490784 68.312477,190.142426 
	C72.739738,191.264343 76.849709,192.185974 81.228577,193.432953 
	C81.331650,194.172195 81.165825,194.586105 81.000000,195.000000 
z"/>
<path fill="#E0E8D9" opacity="1.000000" stroke="none" 
	d="
M447.464661,195.000000 
	C447.000000,180.395615 447.000000,165.791229 447.000000,150.632431 
	C437.398499,150.632431 428.339447,150.632431 419.040405,150.632431 
	C419.040405,145.812531 419.040405,141.547226 419.040405,136.871735 
	C442.213654,136.871735 465.373688,136.871735 488.821106,136.871735 
	C488.821106,141.257187 488.821106,145.650406 488.821106,150.470139 
	C479.764832,150.470139 470.827332,150.470139 461.159790,150.470139 
	C461.159790,165.280426 461.159790,179.677490 461.079895,194.537277 
	C456.643097,195.000000 452.286194,195.000000 447.464661,195.000000 
z"/>
<path fill="#0F1319" opacity="1.000000" stroke="none" 
	d="
M268.531342,1.000000 
	C269.000000,7.959133 269.000000,14.918266 269.000000,22.176514 
	C255.472534,22.176514 242.277786,22.176514 228.269440,22.176514 
	C228.269440,15.373783 228.269440,8.638511 228.134720,1.451619 
	C241.354233,1.000000 254.708450,1.000000 268.531342,1.000000 
z"/>
<path fill="#0E1218" opacity="1.000000" stroke="none" 
	d="
M481.531342,0.999999 
	C481.472900,2.304971 481.188477,3.789994 480.376831,4.883810 
	C476.811371,9.688788 472.803925,14.190060 469.523132,19.174274 
	C466.921997,23.125950 463.831879,24.740229 459.224274,24.038200 
	C457.297913,23.744698 455.289551,23.989410 452.794220,23.989410 
	C452.794220,16.422852 452.794220,9.170224 452.897095,1.458799 
	C462.354218,1.000000 471.708466,1.000000 481.531342,0.999999 
z"/>
<path fill="#4C6DF3" opacity="1.000000" stroke="none" 
	d="
M131.987045,188.679108 
	C126.122749,190.568024 120.258453,192.456940 114.697083,194.672928 
	C114.555557,195.000000 114.111107,195.000000 113.649063,194.672012 
	C113.432785,194.114578 113.234116,193.885117 113.040901,193.283737 
	C113.368561,191.200607 113.690765,189.489410 114.312515,187.561462 
	C121.054413,185.494751 127.496765,183.644821 133.910461,182.159454 
	C133.250229,184.575729 132.618637,186.627426 131.987045,188.679108 
z"/>
<path fill="#4C7FFF" opacity="1.000000" stroke="none" 
	d="
M114.012970,187.778214 
	C113.690765,189.489410 113.368561,191.200607 112.695946,193.386963 
	C111.563690,194.241409 110.781845,194.620712 110.000000,195.000000 
	C104.977905,195.000000 99.955818,195.000000 94.515701,194.665741 
	C95.064400,192.609314 96.031120,190.887161 97.456375,189.097107 
	C103.280930,188.612198 108.646957,188.195206 114.012970,187.778214 
z"/>
<path fill="#C6C942" opacity="1.000000" stroke="none" 
	d="
M1.000000,87.428406 
	C1.330828,86.216591 1.661657,85.433189 2.422057,84.262512 
	C5.290648,82.232529 7.729667,80.589813 10.412546,79.175339 
	C11.456875,81.234581 12.257343,83.065582 12.857998,85.151215 
	C11.438052,86.600517 10.217918,87.795189 8.674229,88.920540 
	C7.902344,89.566666 7.454018,90.282112 6.653890,91.054092 
	C4.534725,91.740425 2.767363,92.370216 1.000000,93.000000 
	C1.000000,91.285606 1.000000,89.571205 1.000000,87.428406 
z"/>
<path fill="#458CF7" opacity="1.000000" stroke="none" 
	d="
M96.997849,189.165009 
	C96.031120,190.887161 95.064400,192.609314 94.048836,194.665741 
	C91.299988,195.000000 88.599968,195.000000 85.360870,194.708023 
	C84.547859,194.610703 84.273933,194.805359 84.000000,195.000000 
	C83.250000,195.000000 82.500000,195.000000 81.375000,195.000000 
	C81.165825,194.586105 81.331650,194.172195 81.250778,193.046112 
	C81.338989,190.831207 81.673897,189.328491 82.444160,187.796509 
	C87.585632,188.233170 92.291733,188.699097 96.997849,189.165009 
z"/>
<path fill="#BDCD52" opacity="1.000000" stroke="none" 
	d="
M92.000000,0.999999 
	C95.362099,1.000000 98.724205,1.000000 102.492538,1.334984 
	C101.931503,3.401786 100.964241,5.133605 99.546219,6.919398 
	C96.072517,7.015037 93.049576,7.056701 90.072571,6.739913 
	C90.745667,4.587641 91.372833,2.793819 92.000000,0.999999 
z"/>
<path fill="#C6C942" opacity="1.000000" stroke="none" 
	d="
M91.571533,0.999999 
	C91.372833,2.793819 90.745667,4.587641 89.743965,6.943058 
	C86.577202,7.866590 83.784966,8.228525 81.011154,8.253299 
	C81.691849,6.042437 82.354141,4.168736 83.016426,2.295036 
	C83.926369,2.083254 84.836304,1.871472 85.873123,1.329844 
	C87.714355,1.000000 89.428719,1.000000 91.571533,0.999999 
z"/>
<path fill="#AFCE64" opacity="1.000000" stroke="none" 
	d="
M99.996971,6.865423 
	C100.964241,5.133605 101.931503,3.401786 102.949387,1.334984 
	C104.388893,1.000000 105.777779,1.000000 107.706177,1.231626 
	C108.497116,1.308835 108.748558,1.154418 109.000000,1.000000 
	C109.444443,1.000000 109.888893,1.000000 110.546066,1.314491 
	C111.165794,1.813369 111.572784,1.997755 111.925888,2.511726 
	C111.236084,4.481614 110.600174,6.121919 109.554382,7.781037 
	C106.095314,7.488376 103.046143,7.176899 99.996971,6.865423 
z"/>
<path fill="#AFCE64" opacity="1.000000" stroke="none" 
	d="
M1.000000,111.000000 
	C1.000000,108.629440 1.000000,106.258888 1.336832,103.393723 
	C3.421486,101.931801 5.169307,100.964500 7.010431,100.417175 
	C7.338609,103.879753 7.573485,106.922340 7.467471,109.986687 
	C5.477467,110.665733 3.828351,111.323029 2.061766,111.730080 
	C1.629531,111.319893 1.314766,111.159950 1.000000,111.000000 
z"/>
<path fill="#BDCD52" opacity="1.000000" stroke="none" 
	d="
M6.917130,99.997200 
	C5.169307,100.964500 3.421486,101.931801 1.336832,102.949554 
	C1.000000,99.969406 1.000000,96.938812 1.000000,93.454109 
	C2.767363,92.370216 4.534725,91.740425 6.713389,91.501434 
	C7.055505,94.593887 6.986318,97.295547 6.917130,99.997200 
z"/>
<path fill="#94BE6B" opacity="1.000000" stroke="none" 
	d="
M2.179236,111.980316 
	C3.828351,111.323029 5.477467,110.665733 7.576899,110.357574 
	C8.285696,112.475029 8.544177,114.243347 8.459686,116.067337 
	C6.653683,117.218765 5.190651,118.314514 3.727620,119.410263 
	C2.987089,118.036926 2.246558,116.663589 1.253013,115.645126 
	C1.000000,115.555557 1.000000,115.111107 1.370093,114.443909 
	C1.886537,113.474205 2.032887,112.727264 2.179236,111.980316 
z"/>
<path fill="#94BE6B" opacity="1.000000" stroke="none" 
	d="
M109.964272,7.762223 
	C110.600174,6.121919 111.236084,4.481614 112.304230,2.452992 
	C113.157646,1.709782 113.578827,1.354891 114.000000,1.000000 
	C114.444443,1.000000 114.888893,1.000000 115.666672,1.000001 
	C116.529160,1.667507 117.058319,2.335012 117.784500,3.499020 
	C117.324898,5.592301 116.668274,7.189080 115.628830,8.793894 
	C113.485443,8.455360 111.724854,8.108791 109.964272,7.762223 
z"/>
<path fill="#0F1319" opacity="1.000000" stroke="none" 
	d="
M110.375000,195.000000 
	C110.781845,194.620712 111.563690,194.241409 112.690491,193.758881 
	C113.234116,193.885117 113.432785,194.114578 113.315735,194.672012 
	C112.250000,195.000000 111.500000,195.000000 110.375000,195.000000 
z"/>
<path fill="#0D1218" opacity="1.000000" stroke="none" 
	d="
M2.061767,111.730087 
	C2.032887,112.727264 1.886537,113.474205 1.370093,114.110573 
	C1.000000,113.250000 1.000000,112.500000 1.000000,111.375000 
	C1.314766,111.159950 1.629531,111.319893 2.061767,111.730087 
z"/>
<path fill="#0F1319" opacity="1.000000" stroke="none" 
	d="
M113.625000,1.000000 
	C113.578827,1.354891 113.157646,1.709782 112.358124,2.123408 
	C111.572784,1.997755 111.165794,1.813369 110.879395,1.314491 
	C111.750000,1.000000 112.500000,1.000000 113.625000,1.000000 
z"/>
<path fill="#0F1319" opacity="1.000000" stroke="none" 
	d="
M311.750000,1.000000 
	C311.581696,1.198037 311.163361,1.396074 310.872528,1.297056 
	C311.000000,1.000000 311.500000,1.000000 311.750000,1.000000 
z"/>
<path fill="#0F1319" opacity="1.000000" stroke="none" 
	d="
M577.000000,76.749992 
	C576.809814,76.577080 576.619568,76.154167 576.714722,75.865631 
	C577.000000,76.000000 577.000000,76.500000 577.000000,76.749992 
z"/>
<path fill="#0F1319" opacity="1.000000" stroke="none" 
	d="
M108.750000,1.000000 
	C108.748558,1.154418 108.497116,1.308835 108.122833,1.231626 
	C108.000000,1.000000 108.500000,1.000000 108.750000,1.000000 
z"/>
<path fill="#0D1218" opacity="1.000000" stroke="none" 
	d="
M84.250000,195.000000 
	C84.273933,194.805359 84.547859,194.610703 84.910889,194.708023 
	C85.000000,195.000000 84.500000,195.000000 84.250000,195.000000 
z"/>
<path fill="#E7EFE0" opacity="1.000000" stroke="none" 
	d="
M410.997131,126.997192 
	C395.518768,126.997192 380.539734,126.997192 365.244904,126.997192 
	C365.096313,125.943428 364.855408,125.024559 364.853851,124.105293 
	C364.829834,109.779114 364.780792,95.452583 364.856628,81.126762 
	C364.904938,72.008705 368.505554,68.533180 377.653351,68.518532 
	C389.647369,68.499321 401.641602,68.475761 413.635437,68.527588 
	C421.479584,68.561478 425.299896,72.319916 425.481079,80.084686 
	C425.558655,83.409515 425.493988,86.737656 425.493988,90.457458 
	C434.014343,91.809311 435.562500,97.787971 435.192535,105.090355 
	C434.998901,108.912613 435.251373,112.758583 435.030334,116.578094 
	C434.666046,122.872932 430.813904,126.663170 424.487946,126.936302 
	C420.164612,127.122963 415.827454,126.988235 410.997131,126.997192 
M413.408020,113.002808 
	C415.826813,113.002808 418.245605,113.002808 420.612244,113.002808 
	C420.612244,109.664772 420.612244,107.061386 420.612244,104.366837 
	C406.702850,104.366837 393.019531,104.366837 379.391754,104.366837 
	C379.391754,107.343483 379.391754,109.947220 379.391754,113.002808 
	C390.552551,113.002808 401.492340,113.002808 413.408020,113.002808 
M390.535645,82.415527 
	C386.808594,82.415527 383.081573,82.415527 379.408997,82.415527 
	C379.408997,85.634834 379.408997,88.046555 379.408997,90.607758 
	C390.046143,90.607758 400.384338,90.607758 410.691467,90.607758 
	C410.691467,87.779427 410.691467,85.243195 410.691467,82.415581 
	C404.071198,82.415581 397.797333,82.415581 390.535645,82.415527 
z"/>
<path fill="#E5EDDE" opacity="1.000000" stroke="none" 
	d="
M453.531921,68.499557 
	C470.605072,68.499092 487.229370,68.499092 504.180389,68.499092 
	C504.180389,73.146858 504.180389,77.404938 504.180389,82.344742 
	C488.441376,82.344742 472.572845,82.344742 456.444916,82.344742 
	C456.444916,85.109428 456.444916,87.204994 456.444916,89.828796 
	C470.090240,89.828796 483.810089,89.828796 497.761719,89.828796 
	C497.761719,94.748566 497.761719,99.147469 497.761719,103.898743 
	C484.032501,103.898743 470.437805,103.898743 456.508911,103.898743 
	C456.508911,106.954147 456.508911,109.672302 456.508911,112.802437 
	C472.244263,112.802437 488.001740,112.802437 504.133118,112.802437 
	C504.133118,117.571732 504.133118,121.954697 504.133118,126.756004 
	C502.966888,126.834038 501.709137,126.989998 500.451202,126.991417 
	C485.460571,127.008392 470.469879,127.024261 455.479279,126.994652 
	C445.490173,126.974922 441.842590,123.367516 441.831665,113.586082 
	C441.819366,102.592957 441.790100,91.599640 441.841827,80.606750 
	C441.880066,72.479080 444.997894,69.181793 453.531921,68.499557 
z"/>
<path fill="#E6EEDF" opacity="1.000000" stroke="none" 
	d="
M286.831818,95.000458 
	C286.850586,89.336899 286.715851,84.166916 286.926483,79.011040 
	C287.196960,72.389656 291.082916,68.582916 297.754242,68.540237 
	C313.912598,68.436844 330.072906,68.410309 346.230682,68.552536 
	C353.390656,68.615562 357.140808,72.705360 357.159698,79.903534 
	C357.190735,91.731186 357.193298,103.559067 357.158966,115.386703 
	C357.137085,122.921455 353.400238,126.907761 345.923553,126.962685 
	C330.265106,127.077721 314.604706,127.078377 298.946259,126.965546 
	C290.769623,126.906616 286.921478,122.816063 286.843842,114.491203 
	C286.784851,108.161415 286.831940,101.830627 286.831818,95.000458 
M342.997955,109.335403 
	C342.997955,100.446648 342.997955,91.557899 342.997955,82.830917 
	C328.724457,82.830917 315.166016,82.830917 301.494476,82.830917 
	C301.494476,93.018913 301.494476,102.882385 301.494476,112.997375 
	C314.596161,112.997375 327.376343,113.055099 340.153320,112.881157 
	C341.112823,112.868095 342.049835,111.201553 342.997955,109.335403 
z"/>
<path fill="#DDE5D7" opacity="1.000000" stroke="none" 
	d="
M238.000275,68.453545 
	C252.606537,68.453568 266.712769,68.453568 281.116425,68.453568 
	C281.116425,73.260818 281.116425,77.646065 281.116425,82.511215 
	C272.004700,82.511215 263.103699,82.511215 253.655029,82.511215 
	C253.655029,97.521202 253.655029,112.065987 253.655029,126.810349 
	C248.653763,126.810349 244.203949,126.810349 239.126373,126.810349 
	C239.126373,112.229050 239.126373,97.541939 239.126373,82.557343 
	C229.565765,82.557343 220.624832,82.557343 211.334213,82.557343 
	C211.334213,77.872086 211.334213,73.480194 211.334213,68.453522 
	C219.975098,68.453522 228.737686,68.453522 238.000275,68.453545 
z"/>
<path fill="#5161F7" opacity="1.000000" stroke="none" 
	d="
M132.328583,188.610077 
	C132.618637,186.627426 133.250229,184.575729 134.139572,181.908569 
	C139.952118,178.250778 145.506912,175.208466 151.061691,172.166138 
	C150.849319,171.798065 150.636932,171.429993 150.424545,171.061920 
	C148.966431,170.898743 147.508331,170.735550 146.039032,170.263016 
	C145.996078,169.339188 145.964294,168.724731 145.949997,167.695679 
	C145.979630,166.450882 145.991776,165.620667 146.453339,164.752441 
	C148.391220,164.749329 149.880814,164.758865 151.367996,164.823578 
	C157.481277,165.089584 162.745377,163.610321 166.234436,158.035202 
	C171.475800,149.660126 176.810516,141.343460 182.456299,132.942856 
	C184.844070,132.253647 186.881119,131.623535 188.918152,130.993439 
	C178.891220,158.701416 159.825912,177.575150 132.328583,188.610077 
z"/>
<path fill="#34D0F9" opacity="1.000000" stroke="none" 
	d="
M164.711243,28.009459 
	C168.062866,31.722631 171.414474,35.435802 174.792023,39.739712 
	C173.467545,41.249512 172.117157,42.168571 170.481323,42.919006 
	C168.815567,41.390335 167.435242,40.030289 165.068100,37.697926 
	C166.000443,42.473225 166.628830,45.691730 166.928925,49.051876 
	C165.066132,49.795250 163.531601,50.396988 161.778687,50.672836 
	C160.042709,44.897957 158.525116,39.448967 157.294312,33.837303 
	C159.957825,31.786236 162.334534,29.897846 164.711243,28.009459 
z"/>
<path fill="#E3EBDD" opacity="1.000000" stroke="none" 
	d="
M519.994995,127.005592 
	C517.543030,127.005592 515.570557,127.005592 513.297241,127.005592 
	C513.297241,121.443199 513.297241,116.108047 513.297241,111.508415 
	C517.745605,112.933197 522.302124,114.392624 527.475098,116.049500 
	C527.475098,118.780167 527.475098,122.499268 527.475098,127.005592 
	C525.282227,127.005592 522.878357,127.005592 519.994995,127.005592 
z"/>
<path fill="#487FF6" opacity="1.000000" stroke="none" 
	d="
M194.355011,89.855499 
	C194.360321,95.990326 194.365616,102.125137 193.839905,108.687531 
	C191.616165,109.406830 189.923416,109.698555 188.011047,109.625877 
	C183.859665,108.762024 179.927902,108.262581 176.057312,107.449265 
	C177.077347,105.513748 178.036255,103.892113 179.391144,102.226379 
	C188.818375,103.061165 188.815460,103.061157 188.830841,93.989792 
	C188.831955,93.327408 188.918762,92.665176 189.324722,91.953201 
	C191.240814,91.220863 192.797913,90.538185 194.355011,89.855499 
z"/>
<path fill="#5BCCBE" opacity="1.000000" stroke="none" 
	d="
M144.017181,12.991258 
	C146.620178,14.438714 149.223175,15.886169 151.651733,17.690775 
	C150.292450,19.430899 149.107590,20.813871 147.563660,22.104450 
	C143.966385,26.547338 140.728165,31.082621 137.507065,35.593941 
	C136.538803,33.880116 135.516388,32.070415 134.391953,30.080128 
	C136.544876,26.149876 138.751114,22.122288 141.115692,17.797802 
	C142.188416,15.997688 143.102798,14.494473 144.017181,12.991258 
z"/>
<path fill="#4C6DF3" opacity="1.000000" stroke="none" 
	d="
M188.230682,109.990280 
	C189.923416,109.698555 191.616165,109.406830 193.675507,109.062881 
	C192.472916,116.133369 190.903702,123.256073 189.126312,130.686111 
	C186.881119,131.623535 184.844070,132.253647 182.492188,132.570282 
	C184.195114,124.834625 186.212906,117.412453 188.230682,109.990280 
z"/>
<path fill="#92CB7F" opacity="1.000000" stroke="none" 
	d="
M116.011642,8.785858 
	C116.668274,7.189080 117.324898,5.592301 118.128777,3.642051 
	C120.294632,3.775100 122.313248,4.261621 124.607048,5.275709 
	C122.917679,9.053260 120.953110,12.303245 118.668243,15.693633 
	C114.261353,17.004004 110.174751,18.173967 106.106972,18.975327 
	C107.089340,16.470058 108.052887,14.333397 109.364456,12.062487 
	C111.884560,11.301618 114.059586,10.684175 116.212540,9.997567 
	C116.268669,9.979665 116.084007,9.206697 116.011642,8.785858 
z"/>
<path fill="#458CF7" opacity="1.000000" stroke="none" 
	d="
M194.394424,89.425903 
	C192.797913,90.538185 191.240814,91.220863 189.086838,91.618698 
	C187.870712,86.596840 187.251480,81.859825 187.024689,77.054642 
	C188.964081,76.650696 190.511002,76.314919 192.057938,75.979141 
	C192.849915,80.318199 193.641876,84.657257 194.394424,89.425903 
z"/>
<path fill="#38BEFA" opacity="1.000000" stroke="none" 
	d="
M170.766769,43.087627 
	C172.117157,42.168571 173.467545,41.249512 174.987534,40.006287 
	C177.749023,43.552029 180.340912,47.421936 182.636795,51.700737 
	C180.807037,52.777340 179.273285,53.445049 177.465378,53.919281 
	C175.049744,50.179745 172.908264,46.633686 170.766769,43.087627 
z"/>
<path fill="#409DF6" opacity="1.000000" stroke="none" 
	d="
M192.074905,75.580368 
	C190.511002,76.314919 188.964081,76.650696 186.826462,76.757919 
	C185.152771,72.687317 184.069763,68.845268 183.341309,64.995224 
	C185.158157,64.313965 186.620422,63.640705 188.082687,62.967438 
	C189.419083,67.038818 190.755478,71.110199 192.074905,75.580368 
z"/>
<path fill="#87CE90" opacity="1.000000" stroke="none" 
	d="
M118.988541,15.553228 
	C120.953110,12.303245 122.917679,9.053260 124.946938,5.462372 
	C127.117630,5.752386 129.223618,6.383302 131.593201,7.492509 
	C130.238251,10.264373 128.619751,12.557946 126.559708,14.916985 
	C123.741631,15.172708 121.365089,15.362967 118.988541,15.553228 
z"/>
<path fill="#3EA6F7" opacity="1.000000" stroke="none" 
	d="
M188.060577,62.592525 
	C186.620422,63.640705 185.158157,64.313965 183.112854,64.727661 
	C180.933044,61.016327 179.336288,57.564545 177.739532,54.112759 
	C179.273285,53.445049 180.807037,52.777340 182.696564,52.048645 
	C184.714371,55.397636 186.376419,58.807621 188.060577,62.592525 
z"/>
<path fill="#50D1D2" opacity="1.000000" stroke="none" 
	d="
M147.922745,22.196844 
	C149.107590,20.813871 150.292450,19.430899 151.836334,17.979416 
	C154.739502,19.710041 157.283630,21.509176 159.650009,23.672585 
	C157.410629,25.355659 155.348984,26.674458 153.050262,27.754860 
	C151.183044,25.743256 149.552902,23.970049 147.922745,22.196844 
z"/>
<path fill="#3FD1E4" opacity="1.000000" stroke="none" 
	d="
M153.287338,27.993259 
	C155.348984,26.674458 157.410629,25.355659 159.816803,23.974434 
	C161.625183,25.078289 163.089005,26.244568 164.632050,27.710152 
	C162.334534,29.897846 159.957825,31.786236 157.062042,33.610565 
	C155.457764,31.695423 154.372543,29.844341 153.287338,27.993259 
z"/>
<path fill="#77CB9D" opacity="1.000000" stroke="none" 
	d="
M127.001244,14.851521 
	C128.619751,12.557946 130.238251,10.264373 131.926453,7.656804 
	C133.560333,7.933120 135.124496,8.523433 136.856354,9.695539 
	C136.349472,12.123713 135.674881,13.970094 134.601868,15.822063 
	C131.802689,15.502276 129.401962,15.176899 127.001244,14.851521 
z"/>
<path fill="#6CCBA9" opacity="1.000000" stroke="none" 
	d="
M135.000305,15.816473 
	C135.674881,13.970094 136.349472,12.123713 137.096695,9.900429 
	C139.310074,10.497872 141.450790,11.472222 143.804352,12.718914 
	C143.102798,14.494473 142.188416,15.997688 140.784729,17.668514 
	C138.530380,17.162907 136.765335,16.489689 135.000305,15.816473 
z"/>
<path fill="#14181D" opacity="1.000000" stroke="none" 
	d="
M560.178406,83.528824 
	C560.414124,86.532516 560.414124,89.147835 560.414124,91.930099 
	C549.989441,91.930099 539.969604,91.930099 529.717651,91.930099 
	C529.717651,88.933914 529.717651,86.183319 529.717651,83.140450 
	C539.898560,83.140450 549.920654,83.140450 560.178406,83.528824 
z"/>
<path fill="#E9C212" opacity="1.000000" stroke="none" 
	d="
M11.962529,53.927147 
	C18.197382,40.200634 27.900444,29.285299 39.892960,20.438599 
	C45.030182,16.648945 50.832741,13.761216 56.647789,10.723979 
	C55.984074,13.358991 55.005554,15.733704 53.838486,18.382366 
	C52.116451,20.096409 50.582966,21.536503 48.708454,23.031559 
	C47.241844,24.390486 46.116261,25.694450 44.699211,26.789082 
	C43.053608,26.962372 41.242134,26.916224 40.417759,27.795519 
	C33.874153,34.775089 27.518198,41.930584 20.757128,49.072365 
	C18.781752,50.400215 17.242418,51.829941 15.491704,52.920258 
	C14.493465,53.541946 13.150352,53.609871 11.962529,53.927147 
z"/>
<path fill="#DCC221" opacity="1.000000" stroke="none" 
	d="
M54.027035,18.108418 
	C55.005554,15.733704 55.984074,13.358991 56.979904,10.631155 
	C61.726402,8.491573 66.455589,6.705113 71.540222,5.261932 
	C70.925674,7.652282 69.955681,9.699354 68.653961,11.901575 
	C63.557171,14.073956 58.792103,16.091187 54.027035,18.108418 
z"/>
<path fill="#CFC331" opacity="1.000000" stroke="none" 
	d="
M68.985687,11.746426 
	C69.955681,9.699354 70.925674,7.652282 71.938148,5.257142 
	C75.399231,4.030584 78.817841,3.152095 82.626434,2.284321 
	C82.354141,4.168736 81.691849,6.042437 80.639420,8.399682 
	C76.494743,9.837626 72.740219,10.792026 68.985687,11.746426 
z"/>
<path fill="#E1C21B" opacity="1.000000" stroke="none" 
	d="
M11.697201,54.152206 
	C13.150352,53.609871 14.493465,53.541946 15.491704,52.920258 
	C17.242418,51.829941 18.781752,50.400215 20.685658,49.419197 
	C18.686714,53.915550 16.411743,58.105366 13.940489,62.048538 
	C11.604861,62.532978 9.465520,63.264069 7.326179,63.995155 
	C8.694744,60.789196 10.063308,57.583229 11.697201,54.152206 
z"/>
<path fill="#DCC221" opacity="1.000000" stroke="none" 
	d="
M7.157150,64.336395 
	C9.465520,63.264069 11.604861,62.532978 13.902617,62.402573 
	C13.019416,65.664375 11.977802,68.325485 10.600455,71.045036 
	C8.236868,72.065765 6.209015,73.028061 4.181165,73.990356 
	C5.116818,70.886116 6.052470,67.781876 7.157150,64.336395 
z"/>
<path fill="#CFC331" opacity="1.000000" stroke="none" 
	d="
M4.053414,74.361847 
	C6.209015,73.028061 8.236868,72.065765 10.612801,71.447456 
	C10.696815,74.176659 10.432751,76.561874 10.168686,78.947090 
	C7.729667,80.589813 5.290648,82.232529 2.523670,83.938423 
	C2.772362,80.912170 3.349013,77.822754 4.053414,74.361847 
z"/>
<path fill="#429AFA" opacity="1.000000" stroke="none" 
	d="
M82.008804,187.825775 
	C81.673897,189.328491 81.338989,190.831207 80.981873,192.720764 
	C76.849709,192.185974 72.739738,191.264343 68.325447,189.784058 
	C69.680168,186.507690 71.339211,183.789978 73.377594,180.956940 
	C80.169807,178.962616 86.582695,177.083649 92.992844,175.575562 
	C92.327705,178.009735 91.665283,180.072998 90.731239,182.379578 
	C86.631096,183.869095 82.802574,185.115265 78.592659,186.485596 
	C79.966164,187.024429 80.987480,187.425110 82.008804,187.825775 
z"/>
<path fill="#39B6F6" opacity="1.000000" stroke="none" 
	d="
M55.980339,185.053741 
	C52.755856,183.366196 49.531376,181.678650 46.143875,179.376785 
	C46.678345,177.110382 47.375835,175.458328 48.393387,173.924683 
	C49.769981,173.606873 51.290527,173.472198 51.803593,172.682770 
	C54.160675,169.055984 56.236305,165.246262 58.257019,161.770386 
	C63.117851,164.723740 62.312847,168.080383 59.555573,171.715881 
	C58.472668,173.143707 57.495644,174.755112 56.946739,176.438263 
	C56.697018,177.203995 57.604702,178.347198 57.973404,179.662781 
	C57.299728,181.688843 56.640034,183.371292 55.980339,185.053741 
z"/>
<path fill="#34D0F9" opacity="1.000000" stroke="none" 
	d="
M37.713142,173.723068 
	C34.079346,170.435562 30.445549,167.148041 27.035149,163.362732 
	C30.366335,160.492920 33.474121,158.120911 36.748367,156.043915 
	C39.026924,160.532822 41.139023,164.726730 42.880852,168.986908 
	C40.911434,170.609802 39.312290,172.166443 37.713142,173.723068 
z"/>
<path fill="#3EA6F7" opacity="1.000000" stroke="none" 
	d="
M56.202332,185.320892 
	C56.640034,183.371292 57.299728,181.688843 58.359261,179.708435 
	C63.505482,179.964386 68.251869,180.518326 72.998253,181.072266 
	C71.339211,183.789978 69.680168,186.507690 68.008156,189.583771 
	C64.138229,188.490784 60.281277,187.039413 56.202332,185.320892 
z"/>
<path fill="#3FD1E4" opacity="1.000000" stroke="none" 
	d="
M36.581909,155.748917 
	C33.474121,158.120911 30.366335,160.492920 26.929955,163.029816 
	C25.165657,161.660858 23.729954,160.126999 22.537643,158.232880 
	C24.229509,157.225357 25.677984,156.578079 27.484818,156.030685 
	C28.579081,155.711136 29.962179,155.257843 29.942301,154.877945 
	C29.839413,152.911621 29.377861,150.964081 29.364773,148.957275 
	C31.253130,148.280502 32.818058,147.656418 34.559540,147.404694 
	C35.351368,150.434326 35.966637,153.091629 36.581909,155.748917 
z"/>
<path fill="#38BEFA" opacity="1.000000" stroke="none" 
	d="
M37.905388,173.968674 
	C39.312290,172.166443 40.911434,170.609802 43.165573,169.121155 
	C45.238155,170.728165 46.655743,172.267212 48.073326,173.806259 
	C47.375835,175.458328 46.678345,177.110382 45.912895,179.150146 
	C43.262501,177.763336 40.680065,175.988800 37.905388,173.968674 
z"/>
<path fill="#6CCBA9" opacity="1.000000" stroke="none" 
	d="
M14.802723,147.324066 
	C13.546212,145.138641 12.289702,142.953217 11.156555,140.123993 
	C12.781477,138.650482 14.283036,137.820770 15.957317,137.300537 
	C17.113516,139.729645 18.096992,141.849274 18.729218,144.020020 
	C17.186220,145.155457 15.994472,146.239761 14.802723,147.324066 
z"/>
<path fill="#77CB9D" opacity="1.000000" stroke="none" 
	d="
M15.784594,136.991058 
	C14.283036,137.820770 12.781477,138.650482 11.116461,139.776688 
	C9.957566,137.991516 8.962130,135.909821 8.129610,133.154602 
	C9.674832,131.596283 11.057137,130.711487 12.678394,130.052643 
	C13.873096,132.516083 14.828844,134.753571 15.784594,136.991058 
z"/>
<path fill="#92CB7F" opacity="1.000000" stroke="none" 
	d="
M3.730487,119.786621 
	C5.190651,118.314514 6.653683,117.218765 8.572350,116.447113 
	C9.574533,119.102356 10.121083,121.433495 10.300905,123.834167 
	C8.396615,124.599998 6.859052,125.296303 5.321488,125.992607 
	C4.792110,124.049400 4.262733,122.106194 3.730487,119.786621 
z"/>
<path fill="#5BCCBE" opacity="1.000000" stroke="none" 
	d="
M14.878996,147.648666 
	C15.994472,146.239761 17.186220,145.155457 18.899517,144.301086 
	C20.665634,146.330139 21.910204,148.129257 22.792048,149.987854 
	C21.196386,151.177841 19.963451,152.308365 18.730518,153.438889 
	C17.472103,151.617020 16.213686,149.795135 14.878996,147.648666 
z"/>
<path fill="#50D1D2" opacity="1.000000" stroke="none" 
	d="
M18.803820,153.750656 
	C19.963451,152.308365 21.196386,151.177841 23.062172,150.183807 
	C24.838831,152.190460 25.982643,154.060623 27.126457,155.930801 
	C25.677984,156.578079 24.229509,157.225357 22.443056,157.925949 
	C21.029093,156.673645 19.953110,155.368042 18.803820,153.750656 
z"/>
<path fill="#82C88D" opacity="1.000000" stroke="none" 
	d="
M5.353477,126.342896 
	C6.859052,125.296303 8.396615,124.599998 10.460989,124.142395 
	C11.471680,126.196304 11.955561,128.011505 12.439442,129.826706 
	C11.057137,130.711487 9.674832,131.596283 8.115769,132.797501 
	C7.087830,130.973694 6.236648,128.833435 5.353477,126.342896 
z"/>
<path fill="#0E141D" opacity="1.000000" stroke="none" 
	d="
M82.444168,187.796509 
	C80.987480,187.425110 79.966164,187.024429 78.592659,186.485596 
	C82.802574,185.115265 86.631096,183.869095 91.105164,182.359970 
	C99.218002,177.681808 106.915253,173.601379 114.049492,168.701233 
	C117.309059,166.462402 120.017410,164.963470 124.121201,166.727142 
	C130.947601,168.010788 137.443497,169.133606 144.178116,170.393723 
	C144.961288,170.544815 145.505753,170.558594 146.050217,170.572372 
	C147.508331,170.735550 148.966431,170.898743 150.424545,171.061920 
	C150.636932,171.429993 150.849319,171.798065 151.061691,172.166138 
	C145.506912,175.208466 139.952118,178.250778 134.168213,181.543976 
	C127.496765,183.644821 121.054413,185.494751 114.312515,187.561462 
	C108.646957,188.195206 103.280930,188.612198 97.456375,189.097107 
	C92.291733,188.699097 87.585632,188.233170 82.444168,187.796509 
z"/>
<path fill="#0E1218" opacity="1.000000" stroke="none" 
	d="
M48.393387,173.924683 
	C46.655743,172.267212 45.238155,170.728165 43.535843,169.054886 
	C41.139023,164.726730 39.026924,160.532822 36.748367,156.043915 
	C35.966637,153.091629 35.351368,150.434326 34.583267,147.008270 
	C34.053917,142.795502 33.677395,139.351517 33.440079,135.620926 
	C33.489067,134.510880 33.398853,133.687408 33.445061,132.431122 
	C33.783348,128.347717 33.985222,124.697151 34.345764,120.821198 
	C34.701523,120.081261 34.898609,119.566711 35.062248,119.035263 
	C35.028801,119.018372 35.043789,119.091797 35.327312,119.184311 
	C36.388603,119.890862 37.166370,120.504883 38.084091,121.424728 
	C40.768406,123.569672 43.312771,125.408783 45.852367,127.244453 
	C48.382812,121.365234 44.913849,118.842171 41.137093,116.151169 
	C40.069115,115.229622 39.150921,114.553108 38.061245,113.576881 
	C37.598759,111.183922 37.307755,109.090675 37.219650,106.689819 
	C38.607128,102.521431 39.791710,98.660660 40.973457,94.809120 
	C39.085373,93.707092 37.595211,92.837318 35.652695,91.703529 
	C34.310539,95.993011 33.114166,99.873154 31.878088,103.740608 
	C31.345963,105.405540 30.821560,107.273994 28.610447,104.694199 
	C27.055872,102.910973 25.594179,101.422882 24.015079,99.629272 
	C22.596395,97.881653 21.295116,96.439537 19.882774,94.681259 
	C18.256083,92.373924 16.740452,90.382759 15.160192,88.098366 
	C14.416314,86.835625 13.737063,85.866104 13.057812,84.896584 
	C12.257343,83.065582 11.456875,81.234581 10.412546,79.175339 
	C10.432751,76.561874 10.696815,74.176659 10.948535,71.389023 
	C11.977802,68.325485 13.019416,65.664375 14.098902,62.649223 
	C16.411743,58.105366 18.686714,53.915550 21.033154,49.378899 
	C27.518198,41.930584 33.874153,34.775089 40.417759,27.795519 
	C41.242134,26.916224 43.053608,26.962372 44.740364,27.102436 
	C45.909073,28.814444 46.745163,30.003763 47.711811,31.510056 
	C49.232567,33.547684 50.622765,35.268341 52.113632,37.300961 
	C53.464275,39.079861 54.714252,40.546799 56.158836,42.297729 
	C57.029026,43.723534 57.704613,44.865345 58.380196,46.007156 
	C58.819942,45.717304 59.259693,45.427452 59.699440,45.137600 
	C59.964893,42.959805 66.079346,42.134060 60.573441,38.406876 
	C58.880085,36.429722 57.418430,34.721413 55.867142,32.698677 
	C54.546478,30.867718 53.315445,29.351181 51.948563,27.537468 
	C50.891632,25.819059 49.970554,24.397829 49.049480,22.976597 
	C50.582966,21.536503 52.116451,20.096409 53.838486,18.382366 
	C58.792103,16.091187 63.557171,14.073956 68.653961,11.901575 
	C72.740219,10.792026 76.494743,9.837626 80.621002,8.736844 
	C83.784966,8.228525 86.577202,7.866590 89.698029,7.301510 
	C93.049576,7.056701 96.072517,7.015037 99.546219,6.919397 
	C103.046143,7.176899 106.095314,7.488376 109.554382,7.781037 
	C111.724854,8.108791 113.485443,8.455360 115.628830,8.793894 
	C116.084007,9.206697 116.268669,9.979665 116.212540,9.997567 
	C114.059586,10.684175 111.884560,11.301618 109.001472,12.078730 
	C104.195251,14.155515 100.100037,16.081810 95.658783,18.058300 
	C85.210197,23.970272 76.039406,30.946991 68.717674,40.482315 
	C71.899567,40.409325 75.193222,40.272369 77.512947,38.699245 
	C82.282066,35.465061 86.530113,31.462517 91.307678,27.666233 
	C96.444534,24.818815 101.266342,22.081373 106.088150,19.343933 
	C110.174751,18.173967 114.261353,17.004004 118.668243,15.693632 
	C121.365089,15.362967 123.741631,15.172708 126.559708,14.916985 
	C129.401962,15.176899 131.802689,15.502276 134.601868,15.822063 
	C136.765335,16.489689 138.530380,17.162907 140.626373,17.965412 
	C138.751114,22.122288 136.544876,26.149876 134.391953,30.080128 
	C135.516388,32.070415 136.538803,33.880116 137.507065,35.593941 
	C140.728165,31.082621 143.966385,26.547338 147.563660,22.104450 
	C149.552902,23.970049 151.183044,25.743256 153.050262,27.754860 
	C154.372543,29.844341 155.457764,31.695423 156.775238,33.773243 
	C158.525116,39.448967 160.042709,44.897957 161.735947,51.140114 
	C162.003372,57.948853 162.095184,63.964420 162.085144,70.382614 
	C161.226303,75.821854 160.469315,80.858459 159.498108,86.189774 
	C158.310471,89.951088 157.337051,93.417694 156.303162,97.099663 
	C153.957352,96.458778 152.057800,95.939812 149.875153,95.242386 
	C145.767212,93.666794 141.942368,92.269653 138.046677,90.846642 
	C136.427399,95.257874 137.553558,97.807350 141.904678,98.836128 
	C143.977798,99.326302 145.972260,100.149147 148.344894,100.972931 
	C153.451111,102.435371 158.214767,103.746178 163.279907,105.278679 
	C167.719635,106.254623 171.857895,107.008881 175.996155,107.763138 
	C179.927902,108.262581 183.859665,108.762024 188.011047,109.625870 
	C186.212906,117.412453 184.195114,124.834625 182.141449,132.629364 
	C176.810516,141.343460 171.475800,149.660126 166.234436,158.035202 
	C162.745377,163.610321 157.481277,165.089584 151.367996,164.823578 
	C149.880814,164.758865 148.391220,164.749329 146.072021,164.637711 
	C138.824432,163.428284 132.407562,162.295563 125.678787,160.993500 
	C125.995697,159.192688 126.624519,157.561234 127.793663,154.527893 
	C123.990959,155.678116 121.061371,156.669327 118.070793,157.416412 
	C116.894745,157.710205 115.526665,157.689194 114.344322,157.404037 
	C112.252502,156.899536 110.235901,156.083160 107.901703,155.226273 
	C101.529228,152.470642 95.442848,149.886047 89.451820,147.341949 
	C87.761711,152.016266 89.567413,154.562057 93.965645,156.017776 
	C98.052528,157.370407 101.990189,159.173935 106.309845,160.940323 
	C108.080025,161.755966 109.533905,162.410233 112.037506,163.536880 
	C105.127731,167.770782 99.061653,171.487717 92.995575,175.204651 
	C86.582695,177.083649 80.169807,178.962616 73.377594,180.956940 
	C68.251869,180.518326 63.505482,179.964386 58.373241,179.364822 
	C57.604702,178.347198 56.697018,177.203995 56.946739,176.438263 
	C57.495644,174.755112 58.472668,173.143707 59.555573,171.715881 
	C62.312847,168.080383 63.117851,164.723740 58.257019,161.770386 
	C56.236305,165.246262 54.160675,169.055984 51.803593,172.682770 
	C51.290527,173.472198 49.769981,173.606873 48.393387,173.924683 
M55.790462,72.951164 
	C59.538029,72.951164 63.285591,72.951164 66.923775,72.951164 
	C66.923775,89.687828 66.923775,105.628792 66.923775,122.008850 
	C62.964661,122.008850 59.210621,122.008850 55.312950,122.008850 
	C55.312950,126.182671 55.312950,129.911591 55.312950,134.067413 
	C59.305180,134.067413 63.061672,134.067413 67.266205,134.067413 
	C67.266205,142.225266 67.266205,149.965103 67.266205,157.646484 
	C71.458855,157.646484 75.174873,157.646484 79.272705,157.646484 
	C79.272705,145.534637 79.272705,133.780136 79.272705,121.727989 
	C83.280777,121.727989 86.898979,121.727989 90.733398,121.727989 
	C90.733398,117.701004 90.733398,113.987015 90.733398,109.842484 
	C86.725372,109.842484 82.977722,109.842484 78.836266,109.842484 
	C78.836266,89.346565 78.836266,69.279343 78.836266,49.222450 
	C74.807243,49.222450 71.207909,49.222450 67.004807,49.222450 
	C67.004807,53.308689 67.004807,57.181564 67.004807,61.338066 
	C62.774670,61.338066 59.152740,61.338066 55.011517,61.338066 
	C55.011517,65.416954 55.011517,69.204384 54.109219,73.138275 
	C50.503689,73.138275 46.898155,73.138275 43.345245,73.138275 
	C43.345245,77.462456 43.345245,81.177841 43.345245,84.650772 
	C47.444122,84.650772 51.179001,84.650772 54.850067,84.650772 
	C54.850067,80.469872 54.850067,76.648201 55.790462,72.951164 
M104.896072,60.998795 
	C108.498077,60.998795 112.100075,60.998795 115.994553,60.998795 
	C115.994553,72.628227 115.942757,83.736801 116.030090,94.844284 
	C116.052612,97.709061 114.513687,98.045128 112.225136,98.020508 
	C105.618164,97.949425 99.009941,97.995392 92.310883,97.995392 
	C92.310883,102.123047 92.310883,105.827293 92.310883,110.011459 
	C100.331558,110.011459 108.047913,110.011459 116.117966,110.011459 
	C116.117966,122.224556 116.117966,133.954224 116.117966,145.695892 
	C120.222610,145.695892 123.942329,145.695892 128.102539,145.695892 
	C128.102539,141.666092 128.102539,137.932205 128.102539,133.816925 
	C132.293228,133.816925 136.037430,133.816925 140.027115,133.816925 
	C140.027115,129.602859 140.027115,125.798912 140.920258,121.859779 
	C144.520081,121.859779 148.119904,121.859779 151.652069,121.859779 
	C151.652069,117.527962 151.652069,113.815140 151.652069,110.348381 
	C147.553711,110.348381 143.821503,110.348381 140.183044,110.348381 
	C140.183044,114.521873 140.183044,118.338264 139.241104,122.014549 
	C135.615753,122.014549 131.990402,122.014549 127.921341,122.014549 
	C127.921341,93.535240 127.921341,65.474792 127.921341,37.264690 
	C123.735451,37.264690 120.010132,37.264690 115.859146,37.264690 
	C115.859146,41.268108 115.859146,45.018345 115.859146,49.165619 
	C111.689796,49.165619 107.940826,49.165619 104.036873,49.165619 
	C104.036873,53.404663 104.036873,57.216591 103.377296,61.823242 
	C99.691620,61.534748 96.005943,61.246250 92.330070,60.958523 
	C92.330070,65.471558 92.330070,69.190834 92.330070,72.683395 
	C96.269318,72.683395 99.850227,72.683395 103.965210,72.683395 
	C103.965210,68.549026 103.965210,64.752525 104.896072,60.998795 
z"/>
<path fill="#0F1519" opacity="1.000000" stroke="none" 
	d="
M12.678394,130.052643 
	C11.955561,128.011505 11.471680,126.196304 10.827715,124.072876 
	C10.121083,121.433495 9.574533,119.102356 8.915321,116.391434 
	C8.544177,114.243347 8.285696,112.475029 7.917788,110.335831 
	C7.573485,106.922340 7.338609,103.879753 7.010432,100.417175 
	C6.986318,97.295547 7.055505,94.593887 7.065192,91.444901 
	C7.454018,90.282112 7.902344,89.566666 8.712976,89.250488 
	C9.975500,90.895294 10.875720,92.140831 11.878791,93.691803 
	C13.320963,95.660614 14.660283,97.324005 16.102882,99.297150 
	C17.230318,100.739441 18.254473,101.871971 19.409454,103.291534 
	C21.344519,105.421913 23.148758,107.265259 25.049564,109.389496 
	C26.181353,110.564911 27.216574,111.459450 28.486988,112.726013 
	C28.671503,115.731567 28.620821,118.365089 28.410381,121.377747 
	C28.070772,126.156052 27.890923,130.555222 27.566462,135.189819 
	C27.537121,136.307022 27.652393,137.188828 27.766098,138.514359 
	C28.190136,142.308731 28.615740,145.659348 29.041344,149.009979 
	C29.377861,150.964081 29.839413,152.911621 29.942301,154.877945 
	C29.962179,155.257843 28.579081,155.711136 27.484814,156.030685 
	C25.982643,154.060623 24.838831,152.190460 23.424896,150.124329 
	C21.910204,148.129257 20.665634,146.330139 19.250767,144.249939 
	C18.096992,141.849274 17.113516,139.729645 15.957315,137.300537 
	C14.828844,134.753571 13.873096,132.516083 12.678394,130.052643 
z"/>
<path fill="#ADBC4C" opacity="1.000000" stroke="none" 
	d="
M11.775938,93.386375 
	C10.875720,92.140831 9.975500,90.895294 9.036533,89.319809 
	C10.217918,87.795189 11.438052,86.600517 12.857998,85.151215 
	C13.737063,85.866104 14.416314,86.835625 15.001995,88.451263 
	C13.864262,90.527046 12.820099,91.956711 11.775938,93.386375 
z"/>
<path fill="#0F1319" opacity="1.000000" stroke="none" 
	d="
M412.920105,113.002808 
	C401.492340,113.002808 390.552551,113.002808 379.391754,113.002808 
	C379.391754,109.947220 379.391754,107.343483 379.391754,104.366837 
	C393.019531,104.366837 406.702850,104.366837 420.612244,104.366837 
	C420.612244,107.061386 420.612244,109.664772 420.612244,113.002808 
	C418.245605,113.002808 415.826813,113.002808 412.920105,113.002808 
z"/>
<path fill="#202529" opacity="1.000000" stroke="none" 
	d="
M391.029541,82.415558 
	C397.797333,82.415581 404.071198,82.415581 410.691467,82.415581 
	C410.691467,85.243195 410.691467,87.779427 410.691467,90.607758 
	C400.384338,90.607758 390.046143,90.607758 379.408997,90.607758 
	C379.408997,88.046555 379.408997,85.634834 379.408997,82.415527 
	C383.081573,82.415527 386.808594,82.415527 391.029541,82.415558 
z"/>
<path fill="#0E1218" opacity="1.000000" stroke="none" 
	d="
M342.997620,109.819527 
	C342.049835,111.201553 341.112823,112.868095 340.153320,112.881157 
	C327.376343,113.055099 314.596161,112.997375 301.494476,112.997375 
	C301.494476,102.882385 301.494476,93.018913 301.494476,82.830917 
	C315.166016,82.830917 328.724457,82.830917 342.997955,82.830917 
	C342.997955,91.557899 342.997955,100.446648 342.997620,109.819527 
z"/>
<path fill="#4A76F4" opacity="1.000000" stroke="none" 
	d="
M125.990677,161.162842 
	C132.407562,162.295563 138.824432,163.428284 145.622620,164.675720 
	C145.991776,165.620667 145.979630,166.450882 145.635132,167.754349 
	C144.848312,168.903854 144.393860,169.580139 143.939407,170.256409 
	C137.443497,169.133606 130.947601,168.010788 124.274231,166.381042 
	C124.728073,164.303680 125.359375,162.733276 125.990677,161.162842 
z"/>
<path fill="#4861E0" opacity="1.000000" stroke="none" 
	d="
M144.178116,170.393723 
	C144.393860,169.580139 144.848312,168.903854 145.617645,168.168915 
	C145.964294,168.724731 145.996078,169.339188 146.039032,170.263016 
	C145.505753,170.558594 144.961288,170.544815 144.178116,170.393723 
z"/>
<path fill="#0E141B" opacity="1.000000" stroke="none" 
	d="
M177.465378,53.919281 
	C179.336288,57.564545 180.933044,61.016327 182.758286,64.735672 
	C184.069763,68.845268 185.152771,72.687317 186.434006,76.826080 
	C187.251480,81.859825 187.870712,86.596840 188.727844,91.668365 
	C188.918762,92.665176 188.831955,93.327408 188.830841,93.989792 
	C188.815460,103.061157 188.818375,103.061165 178.986115,102.118477 
	C173.466995,101.236595 168.748901,100.418518 163.779556,99.409424 
	C163.355484,98.137451 162.860428,96.990334 163.066406,95.987167 
	C163.891800,91.967407 164.934616,87.992294 166.026596,83.622772 
	C166.760620,78.493378 167.365051,73.741867 168.045624,68.580383 
	C167.833588,61.750343 167.545395,55.330292 167.257202,48.910240 
	C166.628830,45.691730 166.000443,42.473225 165.068100,37.697926 
	C167.435242,40.030289 168.815567,41.390335 170.481323,42.919006 
	C172.908264,46.633686 175.049744,50.179745 177.465378,53.919281 
z"/>
<path fill="#38BEFA" opacity="1.000000" stroke="none" 
	d="
M166.928925,49.051876 
	C167.545395,55.330292 167.833588,61.750343 167.682892,68.644974 
	C165.558319,69.406364 163.872665,69.693176 162.186996,69.979988 
	C162.095184,63.964420 162.003372,57.948853 161.954315,51.466007 
	C163.531601,50.396988 165.066132,49.795250 166.928925,49.051876 
z"/>
<path fill="#458CF7" opacity="1.000000" stroke="none" 
	d="
M164.030792,99.600441 
	C168.748901,100.418518 173.466995,101.236595 178.590118,102.162567 
	C178.036255,103.892113 177.077347,105.513748 176.057312,107.449265 
	C171.857895,107.008881 167.719635,106.254623 163.300415,104.882690 
	C163.356567,102.710152 163.693680,101.155296 164.030792,99.600441 
z"/>
<path fill="#9AC66F" opacity="1.000000" stroke="none" 
	d="
M96.004814,18.008106 
	C100.100037,16.081810 104.195251,14.155515 108.653458,12.212976 
	C108.052887,14.333397 107.089340,16.470058 106.106972,18.975327 
	C101.266342,22.081373 96.444534,24.818815 91.323563,27.316080 
	C92.684540,24.053305 94.344673,21.030704 96.004814,18.008106 
z"/>
<path fill="#DCC221" opacity="1.000000" stroke="none" 
	d="
M48.708454,23.031561 
	C49.970554,24.397829 50.891632,25.819059 51.733887,27.813162 
	C50.297127,29.321714 48.939194,30.257397 47.581257,31.193081 
	C46.745163,30.003763 45.909073,28.814444 45.031830,27.311769 
	C46.116261,25.694450 47.241844,24.390486 48.708454,23.031561 
z"/>
<path fill="#458CF7" opacity="1.000000" stroke="none" 
	d="
M125.678780,160.993500 
	C125.359375,162.733276 124.728073,164.303680 123.943741,166.220200 
	C120.017410,164.963470 117.309059,166.462402 114.049492,168.701233 
	C106.915253,173.601379 99.218002,177.681808 91.376785,182.116638 
	C91.665283,180.072998 92.327705,178.009735 92.992844,175.575562 
	C99.061653,171.487717 105.127731,167.770782 112.037506,163.536880 
	C109.533905,162.410233 108.080025,161.755966 106.386551,160.588745 
	C106.827240,158.516296 107.507523,156.956802 108.187805,155.397324 
	C110.235901,156.083160 112.252502,156.899536 114.344322,157.404037 
	C115.526665,157.689194 116.894745,157.710205 118.070793,157.416412 
	C121.061371,156.669327 123.990959,155.678116 127.793663,154.527893 
	C126.624519,157.561234 125.995697,159.192688 125.678780,160.993500 
z"/>
<path fill="#50D1D2" opacity="1.000000" stroke="none" 
	d="
M29.364773,148.957275 
	C28.615740,145.659348 28.190136,142.308731 28.095564,138.339172 
	C30.051355,137.115997 31.676113,136.511765 33.300873,135.907532 
	C33.677395,139.351517 34.053917,142.795502 34.406715,146.635925 
	C32.818058,147.656418 31.253130,148.280502 29.364773,148.957275 
z"/>
<path fill="#E6EEDF" opacity="1.000000" stroke="none" 
	d="
M104.036873,61.028522 
	C104.036873,57.216591 104.036873,53.404663 104.036873,49.165619 
	C107.940826,49.165619 111.689796,49.165619 115.859146,49.165619 
	C115.859146,45.018345 115.859146,41.268108 115.859146,37.264690 
	C120.010132,37.264690 123.735451,37.264690 127.921341,37.264690 
	C127.921341,65.474792 127.921341,93.535240 127.921341,122.014549 
	C131.990402,122.014549 135.615753,122.014549 139.677048,122.040817 
	C140.112991,122.067078 140.027115,121.994965 140.027115,121.994965 
	C140.027115,125.798912 140.027115,129.602859 140.027115,133.816925 
	C136.037430,133.816925 132.293228,133.816925 128.102539,133.816925 
	C128.102539,137.932205 128.102539,141.666092 128.102539,145.695892 
	C123.942329,145.695892 120.222610,145.695892 116.117966,145.695892 
	C116.117966,133.954224 116.117966,122.224556 116.117966,110.011459 
	C108.047913,110.011459 100.331558,110.011459 92.310883,110.011459 
	C92.310883,105.827293 92.310883,102.123047 92.310883,97.995392 
	C99.009941,97.995392 105.618164,97.949425 112.225136,98.020508 
	C114.513687,98.045128 116.052612,97.709061 116.030090,94.844284 
	C115.942757,83.736801 115.994553,72.628227 115.994553,60.998795 
	C112.100075,60.998795 108.498077,60.998795 104.427902,61.015953 
	C103.959724,61.033112 104.036873,61.028522 104.036873,61.028522 
z"/>
<path fill="#E4ECDE" opacity="1.000000" stroke="none" 
	d="
M55.011517,72.991821 
	C55.011517,69.204384 55.011517,65.416954 55.011517,61.338066 
	C59.152740,61.338066 62.774670,61.338066 67.004807,61.338066 
	C67.004807,57.181564 67.004807,53.308689 67.004807,49.222450 
	C71.207909,49.222450 74.807243,49.222450 78.836266,49.222450 
	C78.836266,69.279343 78.836266,89.346565 78.836266,109.842484 
	C82.977722,109.842484 86.725372,109.842484 90.733398,109.842484 
	C90.733398,113.987015 90.733398,117.701004 90.733398,121.727989 
	C86.898979,121.727989 83.280777,121.727989 79.272705,121.727989 
	C79.272705,133.780136 79.272705,145.534637 79.272705,157.646484 
	C75.174873,157.646484 71.458855,157.646484 67.266205,157.646484 
	C67.266205,149.965103 67.266205,142.225266 67.266205,134.067413 
	C63.061672,134.067413 59.305180,134.067413 55.312950,134.067413 
	C55.312950,129.911591 55.312950,126.182671 55.312950,122.008850 
	C59.210621,122.008850 62.964661,122.008850 66.923775,122.008850 
	C66.923775,105.628792 66.923775,89.687828 66.923775,72.951164 
	C63.285591,72.951164 59.538029,72.951164 55.356361,72.934341 
	C54.922260,72.917519 55.011517,72.991821 55.011517,72.991821 
z"/>
<path fill="#A2C363" opacity="1.000000" stroke="none" 
	d="
M95.658783,18.058302 
	C94.344673,21.030704 92.684540,24.053305 91.008514,27.426056 
	C86.530113,31.462517 82.282066,35.465061 77.512947,38.699245 
	C75.193222,40.272369 71.899567,40.409325 68.717674,40.482315 
	C76.039406,30.946991 85.210197,23.970272 95.658783,18.058302 
z"/>
<path fill="#409FF7" opacity="1.000000" stroke="none" 
	d="
M163.779556,99.409424 
	C163.693680,101.155296 163.356567,102.710152 162.998947,104.660995 
	C158.214767,103.746178 153.451111,102.435371 148.416138,100.618744 
	C148.815979,98.548904 149.487122,96.984879 150.158249,95.420853 
	C152.057800,95.939812 153.957352,96.458778 156.303162,97.099663 
	C157.337051,93.417694 158.310471,89.951088 159.864319,86.174683 
	C162.262177,85.243477 164.079590,84.622070 165.897018,84.000671 
	C164.934616,87.992294 163.891800,91.967407 163.066406,95.987167 
	C162.860428,96.990334 163.355484,98.137451 163.779556,99.409424 
z"/>
<path fill="#E3EBDD" opacity="1.000000" stroke="none" 
	d="
M140.148010,122.110870 
	C140.183044,118.338264 140.183044,114.521873 140.183044,110.348381 
	C143.821503,110.348381 147.553711,110.348381 151.652069,110.348381 
	C151.652069,113.815140 151.652069,117.527962 151.652069,121.859779 
	C148.119904,121.859779 144.520081,121.859779 140.473694,121.927368 
	C140.027115,121.994965 140.112991,122.067078 140.148010,122.110870 
z"/>
<path fill="#DDE5D7" opacity="1.000000" stroke="none" 
	d="
M103.962463,60.994568 
	C103.965210,64.752525 103.965210,68.549026 103.965210,72.683395 
	C99.850227,72.683395 96.269318,72.683395 92.330070,72.683395 
	C92.330070,69.190834 92.330070,65.471558 92.330070,60.958523 
	C96.005943,61.246250 99.691620,61.534748 103.707085,61.425880 
	C104.036873,61.028522 103.959724,61.033112 103.962463,60.994568 
z"/>
<path fill="#E3EBDD" opacity="1.000000" stroke="none" 
	d="
M54.886162,72.872025 
	C54.850067,76.648201 54.850067,80.469872 54.850067,84.650772 
	C51.179001,84.650772 47.444122,84.650772 43.345245,84.650772 
	C43.345245,81.177841 43.345245,77.462456 43.345245,73.138275 
	C46.898155,73.138275 50.503689,73.138275 54.560368,73.065048 
	C55.011517,72.991821 54.922260,72.917519 54.886162,72.872025 
z"/>
<path fill="#82C88D" opacity="1.000000" stroke="none" 
	d="
M28.251797,112.353989 
	C27.216574,111.459450 26.181353,110.564911 25.102409,109.056152 
	C26.273567,107.291061 27.488445,106.140190 28.703323,104.989326 
	C30.821560,107.273994 31.345963,105.405540 31.878088,103.740608 
	C33.114166,99.873154 34.310539,95.993011 35.652695,91.703529 
	C37.595211,92.837318 39.085373,93.707092 40.973457,94.809120 
	C39.791710,98.660660 38.607128,102.521431 36.852074,106.698990 
	C33.605000,108.795181 30.928398,110.574585 28.251797,112.353989 
z"/>
<path fill="#409FF7" opacity="1.000000" stroke="none" 
	d="
M107.901703,155.226273 
	C107.507523,156.956802 106.827240,158.516296 106.070251,160.427368 
	C101.990189,159.173935 98.052528,157.370407 93.965645,156.017776 
	C89.567413,154.562057 87.761711,152.016266 89.451820,147.341949 
	C95.442848,149.886047 101.529228,152.470642 107.901703,155.226273 
z"/>
<path fill="#3AA7EF" opacity="1.000000" stroke="none" 
	d="
M166.026596,83.622772 
	C164.079590,84.622070 162.262177,85.243477 160.078537,85.879974 
	C160.469315,80.858459 161.226303,75.821854 162.085144,70.382614 
	C163.872665,69.693176 165.558319,69.406364 167.606735,69.054962 
	C167.365051,73.741867 166.760620,78.493378 166.026596,83.622772 
z"/>
<path fill="#3AA7EF" opacity="1.000000" stroke="none" 
	d="
M149.875153,95.242386 
	C149.487122,96.984879 148.815979,98.548904 148.073608,100.467117 
	C145.972260,100.149147 143.977798,99.326302 141.904678,98.836128 
	C137.553558,97.807350 136.427399,95.257874 138.046677,90.846642 
	C141.942368,92.269653 145.767212,93.666794 149.875153,95.242386 
z"/>
<path fill="#77CFA3" opacity="1.000000" stroke="none" 
	d="
M28.486992,112.726013 
	C30.928398,110.574585 33.605000,108.795181 36.649174,107.006607 
	C37.307755,109.090675 37.598759,111.183922 37.740978,113.748749 
	C36.742722,115.844154 35.893253,117.467972 35.043789,119.091797 
	C35.043789,119.091797 35.028801,119.018372 34.745750,119.076599 
	C33.975765,119.749634 33.488827,120.364449 32.560635,120.983627 
	C30.936300,120.991531 29.753220,120.995071 28.570139,120.998611 
	C28.620821,118.365089 28.671503,115.731567 28.486992,112.726013 
z"/>
<path fill="#6BD5B8" opacity="1.000000" stroke="none" 
	d="
M28.410381,121.377747 
	C29.753220,120.995071 30.936300,120.991531 32.856758,121.003220 
	C33.791790,121.027832 33.989445,121.037201 34.187096,121.046577 
	C33.985222,124.697151 33.783348,128.347717 33.125847,132.506714 
	C31.017166,133.661545 29.364119,134.307968 27.711071,134.954376 
	C27.890923,130.555222 28.070772,126.156052 28.410381,121.377747 
z"/>
<path fill="#5BCCBE" opacity="1.000000" stroke="none" 
	d="
M41.286873,116.396202 
	C44.913849,118.842171 48.382812,121.365234 45.852367,127.244453 
	C43.312771,125.408783 40.768406,123.569672 38.254848,121.109100 
	C39.286060,119.123825 40.286465,117.760010 41.286873,116.396202 
z"/>
<path fill="#92CB7F" opacity="1.000000" stroke="none" 
	d="
M28.610445,104.694199 
	C27.488445,106.140190 26.273567,107.291061 25.005842,108.775269 
	C23.148758,107.265259 21.344519,105.421913 19.722387,103.227997 
	C21.313826,101.896545 22.723156,100.915665 24.132484,99.934784 
	C25.594179,101.422882 27.055872,102.910973 28.610445,104.694199 
z"/>
<path fill="#CFC331" opacity="1.000000" stroke="none" 
	d="
M47.711811,31.510056 
	C48.939194,30.257397 50.297127,29.321714 51.869736,28.110338 
	C53.315445,29.351181 54.546478,30.867718 55.629883,32.902061 
	C54.325829,34.609581 53.169399,35.799290 52.012966,36.988998 
	C50.622765,35.268341 49.232567,33.547684 47.711811,31.510056 
z"/>
<path fill="#ACC85E" opacity="1.000000" stroke="none" 
	d="
M11.878790,93.691803 
	C12.820099,91.956711 13.864262,90.527046 15.066622,88.744492 
	C16.740452,90.382759 18.256083,92.373924 19.546272,94.733612 
	C18.213755,96.397217 17.106680,97.692307 15.999603,98.987396 
	C14.660283,97.324005 13.320963,95.660614 11.878790,93.691803 
z"/>
<path fill="#9AC66F" opacity="1.000000" stroke="none" 
	d="
M16.102882,99.297150 
	C17.106680,97.692307 18.213755,96.397217 19.657333,95.049774 
	C21.295116,96.439537 22.596395,97.881653 24.015079,99.629272 
	C22.723156,100.915665 21.313826,101.896545 19.591560,102.940964 
	C18.254473,101.871971 17.230318,100.739441 16.102882,99.297150 
z"/>
<path fill="#C6C942" opacity="1.000000" stroke="none" 
	d="
M52.113632,37.300961 
	C53.169399,35.799290 54.325829,34.609581 55.719517,33.216484 
	C57.418430,34.721413 58.880085,36.429722 60.225029,38.552177 
	C58.726959,39.982128 57.345596,40.997932 55.964233,42.013737 
	C54.714252,40.546799 53.464275,39.079861 52.113632,37.300961 
z"/>
<path fill="#6CCBA9" opacity="1.000000" stroke="none" 
	d="
M41.137093,116.151169 
	C40.286465,117.760010 39.286060,119.123825 38.114899,120.803268 
	C37.166370,120.504883 36.388603,119.890862 35.327312,119.184311 
	C35.893253,117.467972 36.742722,115.844154 37.912457,114.048462 
	C39.150921,114.553108 40.069115,115.229622 41.137093,116.151169 
z"/>
<path fill="#ADBC4C" opacity="1.000000" stroke="none" 
	d="
M56.158836,42.297729 
	C57.345596,40.997932 58.726959,39.982128 60.456734,38.821022 
	C66.079346,42.134060 59.964893,42.959805 59.699440,45.137600 
	C59.259693,45.427452 58.819942,45.717304 58.380196,46.007156 
	C57.704613,44.865345 57.029026,43.723534 56.158836,42.297729 
z"/>
<path fill="#4EAFA4" opacity="1.000000" stroke="none" 
	d="
M27.566460,135.189804 
	C29.364119,134.307968 31.017166,133.661545 32.989429,132.939545 
	C33.398853,133.687408 33.489067,134.510880 33.440079,135.620941 
	C31.676113,136.511765 30.051355,137.115997 28.097130,137.895416 
	C27.652393,137.188828 27.537121,136.307022 27.566460,135.189804 
z"/>
<path fill="#6CCBA9" opacity="1.000000" stroke="none" 
	d="
M34.345764,120.821198 
	C33.989445,121.037201 33.791790,121.027832 33.298012,120.998856 
	C33.488827,120.364449 33.975765,119.749634 34.779198,119.093491 
	C34.898609,119.566711 34.701523,120.081261 34.345764,120.821198 
z"/>
</svg>